<svg xmlns="http://www.w3.org/2000/svg" viewBox="20.73 2.96 70.41 70.41">
<path d="M 24.734375 69.378906 L 37.21875 69.378906 L 37.21875 56.894531 L 24.734375 56.894531 Z M 24.734375 69.378906 " fill="#9ca3af" fill-opacity="0.5"/>
<path d="M 24.734375 44.414062 L 37.21875 44.414062 L 37.21875 31.929688 L 24.734375 31.929688 Z M 24.734375 44.414062 " fill="#9ca3af" fill-opacity="0.5"/>
<path d="M 24.734375 19.445312 L 37.21875 19.445312 L 37.21875 6.964844 L 24.734375 6.964844 Z M 24.734375 19.445312 " fill="#9ca3af" fill-opacity="0.5"/>
<path d="M 49.699219 69.378906 L 62.183594 69.378906 L 62.183594 56.894531 L 49.699219 56.894531 Z M 49.699219 69.378906 " fill="#9ca3af" fill-opacity="0.5"/>
<path d="M 74.664062 69.378906 L 87.148438 69.378906 L 87.148438 56.894531 L 74.664062 56.894531 Z M 74.664062 69.378906 " fill="#9ca3af" fill-opacity="0.5"/>
<path d="M 49.699219 19.445312 L 62.183594 19.445312 L 62.183594 6.964844 L 49.699219 6.964844 Z M 49.699219 19.445312 " fill="#9ca3af" fill-opacity="0.5"/>
<path d="M 74.664062 19.445312 L 87.148438 19.445312 L 87.148438 6.964844 L 74.664062 6.964844 Z M 74.664062 19.445312 " fill="#9ca3af" fill-opacity="0.5"/>
<path d="M 74.664062 44.414062 L 87.148438 44.414062 L 87.148438 31.929688 L 74.664062 31.929688 Z M 74.664062 44.414062 " fill="#9ca3af" fill-opacity="0.5"/>
<path d="M 37.21875 56.894531 L 55.941406 56.894531 L 55.941406 38.171875 L 37.21875 38.171875 Z M 37.21875 56.894531 " fill="#9ca3af" fill-opacity="0.5"/>
<path d="M 55.941406 38.171875 L 74.664062 38.171875 L 74.664062 19.449219 L 55.941406 19.449219 Z M 55.941406 38.171875 " fill="#9ca3af" fill-opacity="0.5"/>
<path d="M 37.21875 28.808594 L 46.578125 28.808594 L 46.578125 19.445312 L 37.21875 19.445312 Z M 37.21875 28.808594 " fill="#9ca3af" fill-opacity="0.5"/>
<path d="M 46.578125 38.171875 L 55.941406 38.171875 L 55.941406 28.808594 L 46.578125 28.808594 Z M 46.578125 38.171875 " fill="#9ca3af" fill-opacity="0.5"/>
<path d="M 55.941406 47.53125 L 65.304688 47.53125 L 65.304688 38.171875 L 55.941406 38.171875 Z M 55.941406 47.53125 " fill="#9ca3af" fill-opacity="0.5"/>
<path d="M 65.304688 56.894531 L 74.664062 56.894531 L 74.664062 47.53125 L 65.304688 47.53125 Z M 65.304688 56.894531 " fill="#9ca3af" fill-opacity="0.5"/>
<path d="M 24.734 69.379 L 87.148 69.379 L 87.148 6.965 L 24.734 6.965 Z M 24.734 69.379" fill="none" stroke="currentColor" stroke-width="1.5" stroke-linecap="round" stroke-linejoin="round"/>
<path d="M 37.219 69.379 L 37.219 6.965" fill="none" stroke="currentColor" stroke-width="1.5" stroke-linecap="round" stroke-linejoin="round"/>
<path d="M 74.664 69.379 L 74.664 6.965" fill="none" stroke="currentColor" stroke-width="1.5" stroke-linecap="round" stroke-linejoin="round"/>
<path d="M 24.734 56.895 L 87.148 56.895" fill="none" stroke="currentColor" stroke-width="1.5" stroke-linecap="round" stroke-linejoin="round"/>
<path d="M 24.734 19.446 L 87.148 19.446" fill="none" stroke="currentColor" stroke-width="1.5" stroke-linecap="round" stroke-linejoin="round"/>
<path d="M 55.941 56.895 L 55.941 19.446" fill="none" stroke="currentColor" stroke-width="1.5" stroke-linecap="round" stroke-linejoin="round"/>
<path d="M 37.219 38.172 L 74.664 38.172" fill="none" stroke="currentColor" stroke-width="1.5" stroke-linecap="round" stroke-linejoin="round"/>
<path d="M 65.304 56.895 L 65.304 38.172" fill="none" stroke="currentColor" stroke-width="1.5" stroke-linecap="round" stroke-linejoin="round"/>
<path d="M 55.941 47.531 L 74.664 47.531" fill="none" stroke="currentColor" stroke-width="1.5" stroke-linecap="round" stroke-linejoin="round"/>
<path d="M 37.219 28.809 L 55.941 28.809" fill="none" stroke="currentColor" stroke-width="1.5" stroke-linecap="round" stroke-linejoin="round"/>
<path d="M 46.578 38.172 L 46.578 19.446" fill="none" stroke="currentColor" stroke-width="1.5" stroke-linecap="round" stroke-linejoin="round"/>
<path d="M 24.734 44.414 L 37.219 44.414" fill="none" stroke="currentColor" stroke-width="1.5" stroke-linecap="round" stroke-linejoin="round"/>
<path d="M 24.734 31.93 L 37.219 31.93" fill="none" stroke="currentColor" stroke-width="1.5" stroke-linecap="round" stroke-linejoin="round"/>
<path d="M 74.664 44.414 L 87.148 44.414" fill="none" stroke="currentColor" stroke-width="1.5" stroke-linecap="round" stroke-linejoin="round"/>
<path d="M 74.664 31.93 L 87.148 31.93" fill="none" stroke="currentColor" stroke-width="1.5" stroke-linecap="round" stroke-linejoin="round"/>
<path d="M 49.699 69.379 L 49.699 56.895" fill="none" stroke="currentColor" stroke-width="1.5" stroke-linecap="round" stroke-linejoin="round"/>
<path d="M 62.183 69.379 L 62.183 56.895" fill="none" stroke="currentColor" stroke-width="1.5" stroke-linecap="round" stroke-linejoin="round"/>
<path d="M 49.699 19.446 L 49.699 6.965" fill="none" stroke="currentColor" stroke-width="1.5" stroke-linecap="round" stroke-linejoin="round"/>
<path d="M 62.183 19.446 L 62.183 6.965" fill="none" stroke="currentColor" stroke-width="1.5" stroke-linecap="round" stroke-linejoin="round"/>

</svg>