<svg xmlns="http://www.w3.org/2000/svg" viewBox="-4.38 -12.83 148.68 158.93">

<path d="M 54.777 102.156 L 82.215 64.395 L 44.449 36.957 L 17.016 74.719 Z M 54.777 102.156" fill="none" stroke="currentColor" stroke-width="1.5" stroke-linecap="round" stroke-linejoin="round"/>
<path d="M 96.199 99.016 L 130.824 85.027 L 116.836 50.406 L 82.215 64.395 Z M 96.199 99.016" fill="none" stroke="currentColor" stroke-width="1.5" stroke-linecap="round" stroke-linejoin="round"/>
<path d="M 75.594 73.508 C 77.449 74.86 79.738 75.656 82.215 75.656 C 83.703 75.656 85.129 75.367 86.433 74.84" fill="none" stroke="currentColor" stroke-width="1.5" stroke-linecap="round" stroke-linejoin="round"/>
<path d="M 122.988 88.192 C 124.242 91.289 127.277 93.477 130.824 93.477" fill="none" stroke="currentColor" stroke-width="1.5" stroke-linecap="round" stroke-linejoin="round"/>
<path d="M 17.016 85.985 C 20.762 85.985 24.078 84.156 26.125 81.34" fill="none" stroke="currentColor" stroke-width="1.5" stroke-linecap="round" stroke-linejoin="round"/>
<path d="M 17.016 128.762 L 130.824 128.762 L 130.824 15.106 L 17.016 15.106 Z M 17.016 128.762" fill="none" stroke="currentColor" stroke-width="1.5" stroke-linecap="round" stroke-linejoin="round"/>
<text x="4.2" y="78.8" font-size="13" fill="currentColor" font-family="Georgia, 'Times New Roman', serif">U</text>
<text x="40" y="33.9" font-size="13" fill="currentColor" font-family="Georgia, 'Times New Roman', serif">T</text>
<text x="79" y="59.7" font-size="13" fill="currentColor" font-family="Georgia, 'Times New Roman', serif">W</text>
<text x="113" y="47.7" font-size="13" fill="currentColor" font-family="Georgia, 'Times New Roman', serif">Z</text>
<text x="132.8" y="89.2" font-size="13" fill="currentColor" font-family="Georgia, 'Times New Roman', serif" font-style="italic">Y</text>
<text x="50" y="113.3" font-size="13" fill="currentColor" font-family="Georgia, 'Times New Roman', serif">V</text>
<text x="92" y="110.2" font-size="13" fill="currentColor" font-family="Georgia, 'Times New Roman', serif" font-style="italic">X</text>
<text x="6.9" y="139.1" font-size="13" fill="currentColor" font-family="Georgia, 'Times New Roman', serif">P</text>
<text x="132.3" y="139.1" font-size="13" fill="currentColor" font-family="Georgia, 'Times New Roman', serif">Q</text>
<text x="133.3" y="13.2" font-size="13" fill="currentColor" font-family="Georgia, 'Times New Roman', serif">R</text>
<text x="8.2" y="12.9" font-size="13" fill="currentColor" font-family="Georgia, 'Times New Roman', serif">S</text>
<text x="18" y="103.5" font-size="13" fill="currentColor" font-family="Georgia, 'Times New Roman', serif">62°</text>
<text x="109" y="107" font-size="13" fill="currentColor" font-family="Georgia, 'Times New Roman', serif">74°</text>
</svg>