<svg xmlns="http://www.w3.org/2000/svg" viewBox="0 0 140 140">
<g stroke="currentColor" fill="none" stroke-width="1.2">
<polygon points="70,10 110,25 125,65 110,105 70,120 30,105 15,65"/>
<circle cx="70" cy="10" r="11"/><circle cx="110" cy="25" r="11"/><circle cx="125" cy="65" r="11"/>
<circle cx="110" cy="105" r="11"/><circle cx="70" cy="120" r="11"/><circle cx="30" cy="105" r="11"/>
<circle cx="15" cy="65" r="11"/>
<line x1="70" y1="10" x2="110" y2="25"/><line x1="110" y1="25" x2="125" y2="65"/>
<line x1="125" y1="65" x2="110" y2="105"/><line x1="110" y1="105" x2="70" y2="120"/>
<line x1="70" y1="120" x2="30" y2="105"/><line x1="30" y1="105" x2="15" y2="65"/>
<line x1="15" y1="65" x2="70" y2="10"/>
</g>
<g font-size="10" fill="currentColor" font-family="Georgia, 'Times New Roman', serif" text-anchor="middle">
<text x="70" y="14">11</text><text x="110" y="29">10</text><text x="125" y="69">9</text>
<text x="110" y="109">8</text><text x="70" y="124">14</text><text x="30" y="109">13</text>
<text x="15" y="69">12</text>
</g>
</svg>
