<svg xmlns="http://www.w3.org/2000/svg" viewBox="-7.94 -1.38 93.6 93.62">
<path d="M 40.132812 45.433594 C 40.132812 44.734375 39.5625 44.167969 38.859375 44.167969 C 38.160156 44.167969 37.601562 44.734375 37.601562 45.433594 C 37.601562 46.132812 38.160156 46.699219 38.859375 46.699219 C 39.5625 46.699219 40.132812 46.132812 40.132812 45.433594 " fill="white"/>
<path d="M 81.66 45.434 C 81.66 44.426 81.621 43.422 81.551 42.414 C 81.48 41.41 81.383 40.41 81.23 39.41 C 81.09 38.414 80.922 37.422 80.699 36.438 C 80.492 35.453 80.25 34.477 79.961 33.508 C 79.68 32.543 79.371 31.582 79.02 30.637 C 78.672 29.691 78.289 28.762 77.883 27.844 C 77.461 26.926 77.02 26.02 76.539 25.137 C 76.063 24.246 75.551 23.379 75.012 22.527 C 74.48 21.676 73.91 20.844 73.313 20.035 C 72.711 19.227 72.082 18.434 71.43 17.668 C 70.781 16.902 70.102 16.156 69.391 15.441 C 68.691 14.723 67.949 14.027 67.199 13.359 C 66.449 12.695 65.672 12.055 64.871 11.441 C 64.07 10.828 63.242 10.246 62.402 9.691 C 61.563 9.137 60.699 8.613 59.832 8.121 C 58.949 7.629 58.051 7.164 57.141 6.734 C 56.23 6.305 55.301 5.906 54.371 5.543 C 53.422 5.176 52.473 4.844 51.512 4.547 C 50.551 4.25 49.582 3.984 48.602 3.758 C 47.621 3.527 46.633 3.336 45.633 3.176 C 44.641 3.016 43.641 2.891 42.633 2.805 C 41.633 2.715 40.633 2.66 39.621 2.645 C 38.609 2.625 37.602 2.645 36.602 2.695 C 35.59 2.746 34.59 2.84 33.59 2.961 C 32.59 3.086 31.602 3.246 30.609 3.441 C 29.621 3.633 28.633 3.863 27.66 4.125 C 26.691 4.391 25.73 4.688 24.781 5.02 C 23.832 5.352 22.891 5.715 21.961 6.113 C 21.039 6.512 20.133 6.941 19.23 7.402 C 18.34 7.867 17.461 8.359 16.602 8.883 C 15.742 9.406 14.902 9.961 14.07 10.547 C 13.25 11.129 12.449 11.742 11.68 12.379 C 10.902 13.02 10.141 13.687 9.41 14.383 C 8.68 15.074 7.973 15.793 7.301 16.535 C 6.609 17.277 5.961 18.047 5.34 18.836 C 4.711 19.621 4.109 20.434 3.543 21.266 C 2.973 22.098 2.434 22.949 1.926 23.816 C 1.418 24.687 0.938 25.574 0.492 26.477 C 0.047 27.379 -0.367 28.301 -0.75 29.23 C -1.133 30.16 -1.48 31.109 -1.793 32.066 C -2.109 33.023 -2.387 33.988 -2.637 34.969 C -2.883 35.945 -3.094 36.93 -3.27 37.918 C -3.445 38.91 -3.59 39.91 -3.695 40.91 C -3.801 41.91 -3.871 42.918 -3.91 43.926 C -3.941 44.93 -3.941 45.938 -3.91 46.941 C -3.871 47.949 -3.801 48.957 -3.695 49.957 C -3.59 50.961 -3.445 51.957 -3.27 52.945 C -3.094 53.941 -2.883 54.926 -2.637 55.902 C -2.387 56.879 -2.109 57.844 -1.793 58.805 C -1.48 59.762 -1.133 60.703 -0.75 61.637 C -0.367 62.57 0.047 63.488 0.492 64.391 C 0.938 65.293 1.418 66.18 1.926 67.051 C 2.434 67.922 2.973 68.773 3.543 69.602 C 4.109 70.434 4.711 71.242 5.34 72.031 C 5.961 72.824 6.609 73.59 7.301 74.332 C 7.973 75.078 8.68 75.793 9.41 76.488 C 10.141 77.18 10.902 77.848 11.68 78.488 C 12.449 79.129 13.25 79.738 14.07 80.324 C 14.902 80.906 15.742 81.461 16.602 81.984 C 17.461 82.508 18.34 83.004 19.23 83.465 C 20.133 83.926 21.039 84.355 21.961 84.754 C 22.891 85.152 23.832 85.516 24.781 85.848 C 25.73 86.18 26.691 86.477 27.66 86.738 C 28.633 87.004 29.621 87.234 30.609 87.43 C 31.602 87.621 32.59 87.781 33.59 87.906 C 34.59 88.031 35.59 88.117 36.602 88.172 C 37.602 88.227 38.609 88.242 39.621 88.227 C 40.633 88.207 41.633 88.156 42.633 88.066 C 43.641 87.977 44.641 87.855 45.633 87.691 C 46.633 87.535 47.621 87.34 48.602 87.109 C 49.582 86.883 50.551 86.617 51.512 86.32 C 52.473 86.023 53.422 85.691 54.371 85.328 C 55.301 84.961 56.23 84.563 57.141 84.133 C 58.051 83.703 58.949 83.238 59.832 82.746 C 60.699 82.254 61.563 81.73 62.402 81.176 C 63.242 80.621 64.07 80.039 64.871 79.426 C 65.672 78.813 66.449 78.172 67.199 77.508 C 67.949 76.84 68.691 76.148 69.391 75.43 C 70.102 74.711 70.781 73.969 71.43 73.199 C 72.082 72.434 72.711 71.645 73.313 70.836 C 73.91 70.023 74.48 69.191 75.012 68.344 C 75.551 67.488 76.063 66.621 76.539 65.734 C 77.02 64.848 77.461 63.945 77.883 63.027 C 78.289 62.105 78.672 61.176 79.02 60.23 C 79.371 59.285 79.68 58.328 79.961 57.359 C 80.25 56.391 80.492 55.414 80.699 54.43 C 80.922 53.449 81.09 52.453 81.23 51.457 C 81.383 50.461 81.48 49.461 81.551 48.453 C 81.621 47.449 81.66 46.441 81.66 45.434 Z M 81.66 45.434" fill="none" stroke="currentColor" stroke-width="1.5" stroke-linecap="round" stroke-linejoin="round"/>
<path d="M 19.723 45.434 L 58 45.434 L 58 7.156 L 19.723 7.156 Z M 19.723 45.434" fill="none" stroke="currentColor" stroke-width="1.5" stroke-linecap="round" stroke-linejoin="round"/>
<path d="M 40.133 45.434 C 40.133 44.734 39.563 44.168 38.859 44.168 C 38.16 44.168 37.602 44.734 37.602 45.434 C 37.602 46.133 38.16 46.699 38.859 46.699 C 39.563 46.699 40.133 46.133 40.133 45.434 Z M 40.133 45.434" fill="none" stroke="currentColor" stroke-width="1.5" stroke-linecap="round" stroke-linejoin="round"/>
<path d="M 40.133 45.434 C 40.133 44.734 39.563 44.168 38.859 44.168 C 38.16 44.168 37.602 44.734 37.602 45.434 C 37.602 46.133 38.16 46.699 38.859 46.699 C 39.563 46.699 40.133 46.133 40.133 45.434 Z M 40.133 45.434" fill="none" stroke="currentColor" stroke-width="1.5" stroke-linecap="round" stroke-linejoin="round"/>


</svg>