<svg xmlns="http://www.w3.org/2000/svg" viewBox="-1.18 -1.51 76.53 76.53">
<path d="M 41.980469 36.757812 C 41.980469 34.054688 39.78125 31.863281 37.082031 31.863281 C 34.382812 31.863281 32.191406 34.054688 32.191406 36.757812 C 32.191406 39.460938 34.382812 41.652344 37.082031 41.652344 C 39.78125 41.652344 41.980469 39.460938 41.980469 36.757812 Z M 71.351562 36.757812 C 71.351562 17.835938 56.011719 2.492188 37.082031 2.492188 C 18.160156 2.492188 2.820312 17.835938 2.820312 36.757812 C 2.820312 55.679688 18.160156 71.023438 37.082031 71.023438 C 56.011719 71.023438 71.351562 55.679688 71.351562 36.757812 " fill="#9ca3af" fill-opacity="0.5"/>
<path d="M 41.98 36.758 C 41.98 34.055 39.781 31.863 37.082 31.863 C 34.383 31.863 32.191 34.055 32.191 36.758 C 32.191 39.461 34.383 41.652 37.082 41.652 C 39.781 41.652 41.98 39.461 41.98 36.758 Z M 41.98 36.758" fill="none" stroke="currentColor" stroke-width="1.5" stroke-linecap="round" stroke-linejoin="round"/>
<path d="M 71.352 36.758 C 71.352 17.836 56.012 2.492 37.082 2.492 C 18.16 2.492 2.82 17.836 2.82 36.758 C 2.82 55.68 18.16 71.023 37.082 71.023 C 56.012 71.023 71.352 55.68 71.352 36.758 Z M 71.352 36.758" fill="none" stroke="currentColor" stroke-width="1.5" stroke-linecap="round" stroke-linejoin="round"/>
<path d="M 61.441 36.758 C 61.441 23.301 50.539 12.395 37.082 12.395 C 23.633 12.395 12.723 23.301 12.723 36.758 C 12.723 50.211 23.633 61.117 37.082 61.117 C 50.539 61.117 61.441 50.211 61.441 36.758 Z M 61.441 36.758" fill="none" stroke="currentColor" stroke-width="1.5" stroke-linecap="round" stroke-linejoin="round" stroke-dasharray="4 3"/>

</svg>