<svg xmlns="http://www.w3.org/2000/svg" viewBox="-3.75 -12.22 98.24 115.63">
<path d="M 3.027344 79.550781 L 89.792969 79.550781 L 90.492188 3.011719 L 8.492188 3.011719 L 3.027344 79.550781 " fill="#9ca3af" fill-opacity="0.5"/>
<path d="M 6.597656 8.316406 L 16.871094 4.574219 L 18.769531 3.011719 L 3.027344 3.011719 L 6.597656 8.316406 " fill="#9ca3af" fill-opacity="0.5"/>
<path d="M 26.195312 6.222656 L 36.46875 3.011719 L 38.367188 3.011719 L 17.820312 3.011719 L 26.195312 6.222656 " fill="#9ca3af" fill-opacity="0.5"/>
<path d="M 45.796875 4.125 L 56.066406 3.011719 L 57.96875 3.011719 L 37.417969 3.011719 L 45.796875 4.125 " fill="#9ca3af" fill-opacity="0.5"/>
<path d="M 3.027344 26.335938 L 8.886719 22.597656 L 10.78125 11.828125 L 3.027344 4.800781 L 3.027344 26.335938 " fill="#9ca3af" fill-opacity="0.5"/>
<path d="M 18.210938 24.242188 L 28.484375 20.5 L 30.382812 9.734375 L 22.007812 3.011719 L 11.734375 6.445312 L 9.835938 17.214844 L 18.210938 24.242188 " fill="#9ca3af" fill-opacity="0.5"/>
<path d="M 37.808594 22.148438 L 48.082031 18.40625 L 49.980469 7.640625 L 41.605469 3.011719 L 31.332031 4.351562 L 29.433594 15.117188 L 37.808594 22.148438 " fill="#9ca3af" fill-opacity="0.5"/>
<path d="M 57.410156 20.050781 L 67.683594 16.308594 L 69.582031 5.542969 L 61.203125 3.011719 L 50.929688 3.011719 L 49.03125 13.019531 L 57.410156 20.050781 " fill="#9ca3af" fill-opacity="0.5"/>
<path d="M 77.007812 17.953125 L 87.28125 14.214844 L 89.179688 3.449219 L 80.804688 3.011719 L 70.53125 3.011719 L 68.632812 10.925781 L 77.007812 17.953125 " fill="#9ca3af" fill-opacity="0.5"/>
<path d="M 90.492188 15.859375 L 90.492188 3.011719 L 90.128906 3.011719 L 88.230469 8.832031 L 90.492188 15.859375 " fill="#9ca3af" fill-opacity="0.5"/>
<path d="M 10.226562 42.261719 L 20.5 38.523438 L 22.398438 27.757812 L 14.023438 20.726562 L 3.746094 24.46875 L 3.027344 35.234375 L 10.226562 42.261719 " fill="#9ca3af" fill-opacity="0.5"/>
<path d="M 29.824219 40.167969 L 40.097656 36.425781 L 41.996094 25.65625 L 33.621094 18.632812 L 23.347656 22.371094 L 21.449219 33.140625 L 29.824219 40.167969 " fill="#9ca3af" fill-opacity="0.5"/>
<path d="M 49.425781 38.074219 L 59.695312 34.332031 L 61.59375 23.5625 L 53.222656 16.535156 L 42.945312 20.277344 L 41.046875 31.042969 L 49.425781 38.074219 " fill="#9ca3af" fill-opacity="0.5"/>
<path d="M 69.023438 35.976562 L 79.296875 32.234375 L 81.195312 21.46875 L 72.820312 14.441406 L 62.542969 18.179688 L 60.644531 28.945312 L 69.023438 35.976562 " fill="#9ca3af" fill-opacity="0.5"/>
<path d="M 88.621094 33.882812 L 90.492188 30.140625 L 90.492188 12.347656 L 82.144531 16.085938 L 80.246094 26.851562 L 88.621094 33.882812 " fill="#9ca3af" fill-opacity="0.5"/>
<path d="M 3.027344 60.285156 L 12.515625 56.546875 L 14.414062 45.777344 L 6.039062 38.746094 L 3.027344 42.488281 L 3.027344 60.285156 " fill="#9ca3af" fill-opacity="0.5"/>
<path d="M 21.839844 58.1875 L 32.113281 54.445312 L 34.011719 43.679688 L 25.636719 36.652344 L 15.363281 40.390625 L 13.464844 51.15625 L 21.839844 58.1875 " fill="#9ca3af" fill-opacity="0.5"/>
<path d="M 41.4375 56.09375 L 51.714844 52.351562 L 53.609375 41.585938 L 45.234375 34.558594 L 34.960938 38.296875 L 33.0625 49.066406 L 41.4375 56.09375 " fill="#9ca3af" fill-opacity="0.5"/>
<path d="M 61.039062 54 L 71.3125 50.257812 L 73.210938 39.488281 L 64.835938 32.460938 L 54.5625 36.203125 L 52.660156 46.96875 L 61.039062 54 " fill="#9ca3af" fill-opacity="0.5"/>
<path d="M 80.636719 51.902344 L 90.492188 48.160156 L 90.492188 37.394531 L 84.433594 30.367188 L 74.15625 34.105469 L 72.261719 44.871094 L 80.636719 51.902344 " fill="#9ca3af" fill-opacity="0.5"/>
<path d="M 3.027344 78.304688 L 4.527344 74.566406 L 6.429688 63.796875 L 3.027344 56.769531 L 3.027344 78.304688 " fill="#9ca3af" fill-opacity="0.5"/>
<path d="M 13.855469 76.210938 L 24.128906 72.46875 L 26.027344 61.703125 L 17.652344 54.675781 L 7.378906 58.414062 L 5.480469 69.179688 L 13.855469 76.210938 " fill="#9ca3af" fill-opacity="0.5"/>
<path d="M 33.453125 74.113281 L 43.726562 70.371094 L 45.625 59.605469 L 37.25 52.578125 L 26.976562 56.316406 L 25.078125 67.085938 L 33.453125 74.113281 " fill="#9ca3af" fill-opacity="0.5"/>
<path d="M 53.054688 72.019531 L 63.328125 68.277344 L 65.226562 57.511719 L 56.851562 50.484375 L 46.574219 54.222656 L 44.675781 64.992188 L 53.054688 72.019531 " fill="#9ca3af" fill-opacity="0.5"/>
<path d="M 72.652344 69.925781 L 82.925781 66.183594 L 84.824219 55.414062 L 76.449219 48.386719 L 66.175781 52.128906 L 64.277344 62.894531 L 72.652344 69.925781 " fill="#9ca3af" fill-opacity="0.5"/>
<path d="M 90.492188 67.828125 L 90.492188 46.292969 L 85.773438 50.03125 L 83.875 60.800781 L 90.492188 67.828125 " fill="#9ca3af" fill-opacity="0.5"/>
<path d="M 5.871094 79.550781 L 18.042969 79.550781 L 9.667969 72.695312 L 3.027344 76.433594 L 3.027344 79.550781 L 5.871094 79.550781 " fill="#9ca3af" fill-opacity="0.5"/>
<path d="M 25.46875 79.550781 L 35.742188 79.550781 L 37.640625 77.628906 L 29.265625 70.601562 L 18.992188 74.339844 L 17.09375 79.550781 L 25.46875 79.550781 " fill="#9ca3af" fill-opacity="0.5"/>
<path d="M 45.070312 79.550781 L 55.339844 79.550781 L 57.238281 75.53125 L 48.867188 68.503906 L 38.589844 72.242188 L 36.691406 79.550781 L 45.070312 79.550781 " fill="#9ca3af" fill-opacity="0.5"/>
<path d="M 64.667969 79.550781 L 74.941406 79.550781 L 76.839844 73.4375 L 68.464844 66.410156 L 58.1875 70.148438 L 56.289062 79.550781 L 64.667969 79.550781 " fill="#9ca3af" fill-opacity="0.5"/>
<path d="M 84.265625 79.550781 L 90.492188 79.550781 L 90.492188 71.34375 L 88.0625 64.3125 L 77.789062 68.054688 L 75.890625 78.820312 L 84.265625 79.550781 " fill="#9ca3af" fill-opacity="0.5"/>
<path d="M 33.367188 99.40625 L 45.601562 99.40625 L 45.601562 98.921875 L 33.367188 98.921875 Z M 33.367188 99.40625 " fill="#9ca3af" fill-opacity="0.5"/>
<path d="M 6.598 8.316 L 16.871 4.574 L 18.77 3.012 L 3.027 3.012 Z M 6.598 8.316" fill="none" stroke="currentColor" stroke-width="1.5" stroke-linecap="round" stroke-linejoin="round"/>
<path d="M 26.195 6.223 L 36.469 3.012 L 38.367 3.012 L 17.82 3.012 Z M 26.195 6.223" fill="none" stroke="currentColor" stroke-width="1.5" stroke-linecap="round" stroke-linejoin="round"/>
<path d="M 45.797 4.125 L 56.066 3.012 L 57.969 3.012 L 37.418 3.012 Z M 45.797 4.125" fill="none" stroke="currentColor" stroke-width="1.5" stroke-linecap="round" stroke-linejoin="round"/>
<path d="M 3.027 26.336 L 8.887 22.598 L 10.781 11.828 L 3.027 4.801 Z M 3.027 26.336" fill="none" stroke="currentColor" stroke-width="1.5" stroke-linecap="round" stroke-linejoin="round"/>
<path d="M 18.211 24.242 L 28.484 20.5 L 30.383 9.734 L 22.008 3.012 L 11.734 6.445 L 9.836 17.215 Z M 18.211 24.242" fill="none" stroke="currentColor" stroke-width="1.5" stroke-linecap="round" stroke-linejoin="round"/>
<path d="M 37.809 22.148 L 48.082 18.406 L 49.98 7.641 L 41.605 3.012 L 31.332 4.352 L 29.434 15.117 Z M 37.809 22.148" fill="none" stroke="currentColor" stroke-width="1.5" stroke-linecap="round" stroke-linejoin="round"/>
<path d="M 57.41 20.051 L 67.684 16.309 L 69.582 5.543 L 61.203 3.012 L 50.93 3.012 L 49.031 13.02 Z M 57.41 20.051" fill="none" stroke="currentColor" stroke-width="1.5" stroke-linecap="round" stroke-linejoin="round"/>
<path d="M 77.008 17.953 L 87.281 14.215 L 89.18 3.449 L 80.805 3.012 L 70.531 3.012 L 68.633 10.926 Z M 77.008 17.953" fill="none" stroke="currentColor" stroke-width="1.5" stroke-linecap="round" stroke-linejoin="round"/>
<path d="M 90.492 15.859 L 90.492 3.012 L 90.129 3.012 L 88.23 8.832 Z M 90.492 15.859" fill="none" stroke="currentColor" stroke-width="1.5" stroke-linecap="round" stroke-linejoin="round"/>
<path d="M 10.227 42.262 L 20.5 38.523 L 22.398 27.758 L 14.023 20.727 L 3.746 24.469 L 3.027 35.234 Z M 10.227 42.262" fill="none" stroke="currentColor" stroke-width="1.5" stroke-linecap="round" stroke-linejoin="round"/>
<path d="M 29.824 40.168 L 40.098 36.426 L 41.996 25.656 L 33.621 18.633 L 23.348 22.371 L 21.449 33.141 Z M 29.824 40.168" fill="none" stroke="currentColor" stroke-width="1.5" stroke-linecap="round" stroke-linejoin="round"/>
<path d="M 49.426 38.074 L 59.695 34.332 L 61.594 23.563 L 53.223 16.535 L 42.945 20.277 L 41.047 31.043 Z M 49.426 38.074" fill="none" stroke="currentColor" stroke-width="1.5" stroke-linecap="round" stroke-linejoin="round"/>
<path d="M 69.023 35.977 L 79.297 32.234 L 81.195 21.469 L 72.82 14.441 L 62.543 18.18 L 60.645 28.945 Z M 69.023 35.977" fill="none" stroke="currentColor" stroke-width="1.5" stroke-linecap="round" stroke-linejoin="round"/>
<path d="M 88.621 33.883 L 90.492 30.141 L 90.492 12.348 L 82.145 16.086 L 80.246 26.852 Z M 88.621 33.883" fill="none" stroke="currentColor" stroke-width="1.5" stroke-linecap="round" stroke-linejoin="round"/>
<path d="M 3.027 60.285 L 12.516 56.547 L 14.414 45.777 L 6.039 38.746 L 3.027 42.488 Z M 3.027 60.285" fill="none" stroke="currentColor" stroke-width="1.5" stroke-linecap="round" stroke-linejoin="round"/>
<path d="M 21.84 58.188 L 32.113 54.445 L 34.012 43.68 L 25.637 36.652 L 15.363 40.391 L 13.465 51.156 Z M 21.84 58.188" fill="none" stroke="currentColor" stroke-width="1.5" stroke-linecap="round" stroke-linejoin="round"/>
<path d="M 41.438 56.094 L 51.715 52.352 L 53.609 41.586 L 45.234 34.559 L 34.961 38.297 L 33.063 49.066 Z M 41.438 56.094" fill="none" stroke="currentColor" stroke-width="1.5" stroke-linecap="round" stroke-linejoin="round"/>
<path d="M 61.039 54 L 71.313 50.258 L 73.211 39.488 L 64.836 32.461 L 54.563 36.203 L 52.66 46.969 Z M 61.039 54" fill="none" stroke="currentColor" stroke-width="1.5" stroke-linecap="round" stroke-linejoin="round"/>
<path d="M 80.637 51.902 L 90.492 48.16 L 90.492 37.395 L 84.434 30.367 L 74.156 34.105 L 72.262 44.871 Z M 80.637 51.902" fill="none" stroke="currentColor" stroke-width="1.5" stroke-linecap="round" stroke-linejoin="round"/>
<path d="M 3.027 78.305 L 4.527 74.566 L 6.43 63.797 L 3.027 56.77 Z M 3.027 78.305" fill="none" stroke="currentColor" stroke-width="1.5" stroke-linecap="round" stroke-linejoin="round"/>
<path d="M 13.855 76.211 L 24.129 72.469 L 26.027 61.703 L 17.652 54.676 L 7.379 58.414 L 5.48 69.18 Z M 13.855 76.211" fill="none" stroke="currentColor" stroke-width="1.5" stroke-linecap="round" stroke-linejoin="round"/>
<path d="M 33.453 74.113 L 43.727 70.371 L 45.625 59.605 L 37.25 52.578 L 26.977 56.316 L 25.078 67.086 Z M 33.453 74.113" fill="none" stroke="currentColor" stroke-width="1.5" stroke-linecap="round" stroke-linejoin="round"/>
<path d="M 53.055 72.02 L 63.328 68.277 L 65.227 57.512 L 56.852 50.484 L 46.574 54.223 L 44.676 64.992 Z M 53.055 72.02" fill="none" stroke="currentColor" stroke-width="1.5" stroke-linecap="round" stroke-linejoin="round"/>
<path d="M 72.652 69.926 L 82.926 66.184 L 84.824 55.414 L 76.449 48.387 L 66.176 52.129 L 64.277 62.895 Z M 72.652 69.926" fill="none" stroke="currentColor" stroke-width="1.5" stroke-linecap="round" stroke-linejoin="round"/>
<path d="M 90.492 67.828 L 90.492 46.293 L 85.773 50.031 L 83.875 60.801 Z M 90.492 67.828" fill="none" stroke="currentColor" stroke-width="1.5" stroke-linecap="round" stroke-linejoin="round"/>
<path d="M 5.871 79.551 L 18.043 79.551 L 9.668 72.695 L 3.027 76.434 L 3.027 79.551 Z M 5.871 79.551" fill="none" stroke="currentColor" stroke-width="1.5" stroke-linecap="round" stroke-linejoin="round"/>
<path d="M 25.469 79.551 L 35.742 79.551 L 37.641 77.629 L 29.266 70.602 L 18.992 74.34 L 17.094 79.551 Z M 25.469 79.551" fill="none" stroke="currentColor" stroke-width="1.5" stroke-linecap="round" stroke-linejoin="round"/>
<path d="M 45.07 79.551 L 55.34 79.551 L 57.238 75.531 L 48.867 68.504 L 38.59 72.242 L 36.691 79.551 Z M 45.07 79.551" fill="none" stroke="currentColor" stroke-width="1.5" stroke-linecap="round" stroke-linejoin="round"/>
<path d="M 64.668 79.551 L 74.941 79.551 L 76.84 73.438 L 68.465 66.41 L 58.188 70.148 L 56.289 79.551 Z M 64.668 79.551" fill="none" stroke="currentColor" stroke-width="1.5" stroke-linecap="round" stroke-linejoin="round"/>
<path d="M 84.266 79.551 L 90.492 79.551 L 90.492 71.344 L 88.063 64.313 L 77.789 68.055 L 75.891 78.82 Z M 84.266 79.551" fill="none" stroke="currentColor" stroke-width="1.5" stroke-linecap="round" stroke-linejoin="round"/>
<path d="M 33.367 98.922 L 45.602 98.922 L 45.602 99.406 L 33.367 99.406 Z M 33.367 98.922" fill="none" stroke="currentColor" stroke-width="1.5" stroke-linecap="round" stroke-linejoin="round"/>


</svg>