<svg xmlns="http://www.w3.org/2000/svg" viewBox="0 0 180 68">
<g stroke="currentColor" fill="none" stroke-width="1.2">
<rect x="4" y="4" width="60" height="60"/>
<line x1="24" y1="4" x2="24" y2="64"/><line x1="44" y1="4" x2="44" y2="64"/>
<line x1="4" y1="24" x2="64" y2="24"/><line x1="4" y1="44" x2="64" y2="44"/>
<rect x="116" y="4" width="60" height="60"/>
<line x1="136" y1="4" x2="136" y2="64"/><line x1="156" y1="4" x2="156" y2="64"/>
<line x1="116" y1="24" x2="176" y2="24"/><line x1="116" y1="44" x2="176" y2="44"/>
</g>
<g font-size="13" fill="currentColor" font-family="Georgia, 'Times New Roman', serif" text-anchor="middle">
<text x="14" y="18">7</text><text x="34" y="18">8</text><text x="54" y="18">9</text>
<text x="14" y="38">4</text><text x="34" y="38">5</text><text x="54" y="38">6</text>
<text x="14" y="58">1</text><text x="34" y="58">2</text><text x="54" y="58">3</text>
<text x="126" y="18">9</text><text x="146" y="18">8</text><text x="166" y="18">7</text>
<text x="126" y="38">6</text><text x="146" y="38">5</text><text x="166" y="38">4</text>
<text x="126" y="58">3</text><text x="146" y="58">2</text><text x="166" y="58">1</text>
</g>
</svg>
