<svg xmlns="http://www.w3.org/2000/svg" viewBox="-22.13 -12.16 122.3 111.71">
<path d="M -1.398438 78.816406 L 48.78125 78.816406 L 79.449219 19.355469 L -1.398438 78.816406 " fill="white"/>
<path d="M -1.398 78.816 L 48.781 78.816 L 79.449 19.355 Z M -1.398 78.816" fill="none" stroke="currentColor" stroke-width="1.5" stroke-linecap="round" stroke-linejoin="round"/>
<path d="M 96.172 19.355 C 96.172 18.961 96.16 18.566 96.133 18.176 C 96.102 17.777 96.063 17.391 96.012 17 C 95.949 16.609 95.883 16.223 95.801 15.836 C 95.723 15.453 95.621 15.07 95.512 14.691 C 95.402 14.313 95.281 13.941 95.141 13.57 C 95 13.203 94.852 12.836 94.691 12.48 C 94.531 12.121 94.359 11.766 94.172 11.422 C 93.98 11.074 93.789 10.734 93.57 10.398 C 93.359 10.066 93.141 9.742 92.91 9.426 C 92.672 9.109 92.43 8.801 92.172 8.5 C 91.922 8.203 91.652 7.91 91.371 7.633 C 91.102 7.348 90.813 7.078 90.52 6.816 C 90.223 6.559 89.922 6.309 89.609 6.066 C 89.289 5.832 88.973 5.602 88.641 5.387 C 88.32 5.168 87.98 4.965 87.641 4.77 C 87.289 4.578 86.941 4.395 86.59 4.23 C 86.23 4.063 85.871 3.906 85.5 3.766 C 85.133 3.617 84.762 3.492 84.391 3.375 C 84.012 3.258 83.633 3.152 83.25 3.063 C 82.871 2.977 82.48 2.898 82.09 2.84 C 81.699 2.773 81.313 2.727 80.922 2.691 C 80.531 2.656 80.133 2.637 79.742 2.629 C 79.34 2.621 78.949 2.629 78.563 2.648 C 78.172 2.672 77.77 2.707 77.383 2.754 C 76.992 2.805 76.602 2.863 76.223 2.941 C 75.832 3.016 75.449 3.109 75.07 3.211 C 74.691 3.313 74.313 3.43 73.941 3.559 C 73.57 3.688 73.199 3.832 72.84 3.984 C 72.48 4.141 72.121 4.309 71.77 4.492 C 71.422 4.672 71.082 4.863 70.742 5.07 C 70.41 5.273 70.082 5.488 69.762 5.719 C 69.43 5.945 69.121 6.184 68.82 6.434 C 68.52 6.684 68.223 6.945 67.93 7.215 C 67.652 7.488 67.371 7.77 67.109 8.059 C 66.84 8.348 66.59 8.648 66.34 8.957 C 66.102 9.266 65.859 9.582 65.641 9.906 C 65.422 10.234 65.211 10.563 65.012 10.906 C 64.813 11.246 64.621 11.59 64.449 11.941 C 64.27 12.297 64.109 12.656 63.961 13.02 C 63.82 13.387 63.68 13.754 63.563 14.129 C 63.43 14.504 63.32 14.879 63.23 15.262 C 63.133 15.645 63.051 16.027 62.98 16.418 C 62.91 16.805 62.852 17.195 62.813 17.586 C 62.77 17.977 62.742 18.371 62.73 18.762 C 62.711 19.156 62.711 19.551 62.73 19.941 C 62.742 20.336 62.77 20.73 62.813 21.121 C 62.852 21.512 62.91 21.902 62.98 22.289 C 63.051 22.676 63.133 23.063 63.23 23.445 C 63.32 23.828 63.43 24.203 63.563 24.578 C 63.68 24.953 63.82 25.32 63.961 25.688 C 64.109 26.051 64.27 26.41 64.449 26.766 C 64.621 27.117 64.813 27.461 65.012 27.801 C 65.211 28.141 65.422 28.473 65.641 28.801 C 65.859 29.125 66.102 29.441 66.34 29.746 C 66.59 30.055 66.84 30.359 67.109 30.648 C 67.371 30.938 67.652 31.219 67.93 31.492 C 68.223 31.762 68.52 32.023 68.82 32.273 C 69.121 32.523 69.43 32.762 69.762 32.988 C 70.082 33.219 70.41 33.434 70.742 33.637 C 71.082 33.844 71.422 34.035 71.77 34.215 C 72.121 34.395 72.48 34.566 72.84 34.723 C 73.199 34.875 73.57 35.02 73.941 35.148 C 74.313 35.277 74.691 35.395 75.07 35.496 C 75.449 35.598 75.832 35.688 76.223 35.766 C 76.602 35.84 76.992 35.902 77.383 35.953 C 77.77 36 78.172 36.035 78.563 36.055 C 78.949 36.074 79.34 36.086 79.742 36.074 C 80.133 36.07 80.531 36.051 80.922 36.016 C 81.313 35.98 81.699 35.934 82.09 35.867 C 82.48 35.805 82.871 35.73 83.25 35.645 C 83.633 35.551 84.012 35.449 84.391 35.332 C 84.762 35.215 85.133 35.086 85.5 34.941 C 85.871 34.801 86.23 34.645 86.59 34.477 C 86.941 34.309 87.289 34.129 87.641 33.938 C 87.98 33.742 88.32 33.539 88.641 33.32 C 88.973 33.105 89.289 32.875 89.609 32.641 C 89.922 32.398 90.223 32.148 90.52 31.891 C 90.813 31.629 91.102 31.359 91.371 31.074 C 91.652 30.797 91.922 30.504 92.172 30.207 C 92.43 29.906 92.672 29.598 92.91 29.281 C 93.141 28.965 93.359 28.637 93.57 28.305 C 93.789 27.973 93.98 27.633 94.172 27.285 C 94.359 26.941 94.531 26.586 94.691 26.227 C 94.852 25.871 95 25.504 95.141 25.137 C 95.281 24.766 95.402 24.391 95.512 24.016 C 95.621 23.637 95.723 23.254 95.801 22.871 C 95.883 22.484 95.949 22.098 96.012 21.707 C 96.063 21.316 96.102 20.926 96.133 20.531 C 96.16 20.141 96.172 19.746 96.172 19.355 Z M 96.172 19.355" fill="none" stroke="currentColor" stroke-width="1.5" stroke-linecap="round" stroke-linejoin="round"/>
<path d="M 15.332 78.816 C 15.332 78.426 15.313 78.031 15.281 77.637 C 15.262 77.246 15.223 76.852 15.16 76.465 C 15.109 76.07 15.039 75.688 14.949 75.301 C 14.871 74.918 14.77 74.535 14.672 74.156 C 14.563 73.781 14.43 73.402 14.301 73.035 C 14.16 72.664 14.012 72.301 13.852 71.941 C 13.691 71.586 13.512 71.23 13.332 70.883 C 13.141 70.535 12.941 70.195 12.73 69.863 C 12.52 69.531 12.301 69.207 12.063 68.891 C 11.832 68.574 11.582 68.266 11.332 67.965 C 11.07 67.664 10.813 67.375 10.531 67.094 C 10.25 66.813 9.973 66.543 9.672 66.281 C 9.383 66.023 9.082 65.77 8.762 65.531 C 8.449 65.293 8.133 65.066 7.801 64.848 C 7.473 64.633 7.133 64.43 6.789 64.234 C 6.449 64.043 6.102 63.863 5.742 63.695 C 5.391 63.523 5.031 63.371 4.66 63.227 C 4.289 63.086 3.922 62.953 3.547 62.84 C 3.168 62.723 2.789 62.617 2.406 62.531 C 2.023 62.441 1.637 62.363 1.246 62.301 C 0.859 62.238 0.469 62.191 0.074 62.156 C -0.316 62.121 -0.711 62.102 -1.102 62.094 C -1.496 62.09 -1.891 62.094 -2.281 62.113 C -2.676 62.137 -3.07 62.172 -3.461 62.219 C -3.852 62.266 -4.242 62.328 -4.629 62.406 C -5.012 62.48 -5.395 62.57 -5.773 62.676 C -6.156 62.777 -6.531 62.895 -6.902 63.023 C -7.273 63.152 -7.641 63.297 -8.004 63.449 C -8.363 63.605 -8.723 63.773 -9.07 63.953 C -9.422 64.137 -9.766 64.328 -10.102 64.531 C -10.438 64.738 -10.766 64.953 -11.086 65.184 C -11.406 65.41 -11.719 65.648 -12.023 65.898 C -12.328 66.148 -12.621 66.41 -12.906 66.684 C -13.195 66.953 -13.469 67.234 -13.734 67.523 C -14 67.813 -14.258 68.113 -14.504 68.422 C -14.746 68.73 -14.98 69.047 -15.203 69.371 C -15.426 69.699 -15.637 70.027 -15.836 70.371 C -16.035 70.711 -16.223 71.055 -16.395 71.406 C -16.57 71.762 -16.73 72.121 -16.879 72.484 C -17.027 72.852 -17.164 73.219 -17.289 73.594 C -17.41 73.965 -17.52 74.344 -17.617 74.727 C -17.711 75.109 -17.797 75.492 -17.863 75.883 C -17.934 76.27 -17.988 76.656 -18.031 77.051 C -18.074 77.441 -18.102 77.836 -18.113 78.227 C -18.129 78.621 -18.129 79.016 -18.113 79.406 C -18.102 79.801 -18.074 80.195 -18.031 80.586 C -17.988 80.977 -17.934 81.367 -17.863 81.754 C -17.797 82.141 -17.711 82.527 -17.617 82.91 C -17.52 83.289 -17.41 83.668 -17.289 84.039 C -17.164 84.418 -17.027 84.785 -16.879 85.152 C -16.73 85.516 -16.57 85.875 -16.395 86.227 C -16.223 86.578 -16.035 86.926 -15.836 87.266 C -15.637 87.605 -15.426 87.938 -15.203 88.262 C -14.98 88.59 -14.746 88.906 -14.504 89.215 C -14.258 89.523 -14 89.82 -13.734 90.113 C -13.469 90.402 -13.195 90.684 -12.906 90.953 C -12.621 91.227 -12.328 91.484 -12.023 91.734 C -11.719 91.984 -11.406 92.223 -11.086 92.453 C -10.766 92.68 -10.438 92.898 -10.102 93.102 C -9.766 93.309 -9.422 93.5 -9.07 93.68 C -8.723 93.859 -8.363 94.031 -8.004 94.184 C -7.641 94.34 -7.273 94.484 -6.902 94.613 C -6.531 94.738 -6.156 94.859 -5.773 94.961 C -5.395 95.063 -5.012 95.152 -4.629 95.23 C -4.242 95.305 -3.852 95.367 -3.461 95.418 C -3.07 95.465 -2.676 95.5 -2.281 95.52 C -1.891 95.543 -1.496 95.551 -1.102 95.543 C -0.711 95.535 -0.316 95.512 0.074 95.48 C 0.469 95.441 0.859 95.395 1.246 95.332 C 1.637 95.273 2.023 95.195 2.406 95.105 C 2.789 95.016 3.168 94.914 3.547 94.797 C 3.922 94.68 4.289 94.551 4.66 94.406 C 5.031 94.266 5.391 94.109 5.742 93.945 C 6.102 93.773 6.449 93.594 6.789 93.398 C 7.133 93.211 7.473 93.004 7.801 92.785 C 8.133 92.57 8.449 92.344 8.762 92.102 C 9.082 91.863 9.383 91.613 9.672 91.352 C 9.973 91.09 10.25 90.82 10.531 90.539 C 10.813 90.262 11.07 89.969 11.332 89.672 C 11.582 89.371 11.832 89.063 12.063 88.742 C 12.301 88.43 12.52 88.102 12.73 87.77 C 12.941 87.438 13.141 87.098 13.332 86.75 C 13.512 86.402 13.691 86.051 13.852 85.691 C 14.012 85.336 14.16 84.969 14.301 84.602 C 14.43 84.23 14.563 83.855 14.672 83.48 C 14.77 83.102 14.871 82.719 14.949 82.336 C 15.039 81.949 15.109 81.563 15.16 81.172 C 15.223 80.781 15.262 80.391 15.281 79.996 C 15.313 79.605 15.332 79.211 15.332 78.816 Z M 15.332 78.816" fill="none" stroke="currentColor" stroke-width="1.5" stroke-linecap="round" stroke-linejoin="round"/>
<path d="M 65.5 78.816 C 65.5 78.426 65.492 78.031 65.473 77.637 C 65.441 77.246 65.402 76.852 65.34 76.465 C 65.281 76.07 65.211 75.688 65.133 75.301 C 65.051 74.918 64.961 74.535 64.84 74.156 C 64.73 73.781 64.609 73.402 64.473 73.035 C 64.34 72.664 64.191 72.301 64.031 71.941 C 63.871 71.586 63.691 71.23 63.512 70.883 C 63.32 70.535 63.121 70.195 62.91 69.863 C 62.699 69.531 62.473 69.207 62.242 68.891 C 62.012 68.574 61.762 68.266 61.512 67.965 C 61.25 67.664 60.992 67.375 60.711 67.094 C 60.441 66.813 60.152 66.543 59.852 66.281 C 59.563 66.023 59.262 65.77 58.941 65.531 C 58.633 65.293 58.313 65.066 57.98 64.848 C 57.652 64.633 57.313 64.43 56.973 64.234 C 56.633 64.043 56.281 63.863 55.922 63.695 C 55.57 63.523 55.211 63.371 54.84 63.227 C 54.473 63.086 54.102 62.953 53.723 62.84 C 53.352 62.723 52.973 62.617 52.582 62.531 C 52.199 62.441 51.813 62.363 51.43 62.301 C 51.039 62.238 50.652 62.191 50.262 62.156 C 49.859 62.121 49.473 62.102 49.082 62.094 C 48.68 62.09 48.289 62.094 47.891 62.113 C 47.5 62.137 47.109 62.172 46.723 62.219 C 46.332 62.266 45.941 62.328 45.551 62.406 C 45.172 62.48 44.781 62.57 44.402 62.676 C 44.02 62.777 43.652 62.895 43.27 63.023 C 42.902 63.152 42.539 63.297 42.172 63.449 C 41.813 63.605 41.461 63.773 41.109 63.953 C 40.762 64.137 40.41 64.328 40.082 64.531 C 39.742 64.738 39.41 64.953 39.09 65.184 C 38.77 65.41 38.461 65.648 38.16 65.898 C 37.852 66.148 37.551 66.41 37.27 66.684 C 36.98 66.953 36.711 67.234 36.441 67.523 C 36.18 67.813 35.922 68.113 35.68 68.422 C 35.43 68.73 35.199 69.047 34.98 69.371 C 34.75 69.699 34.539 70.027 34.34 70.371 C 34.152 70.711 33.961 71.055 33.781 71.406 C 33.609 71.762 33.449 72.121 33.301 72.484 C 33.152 72.852 33.012 73.219 32.891 73.594 C 32.77 73.965 32.66 74.344 32.563 74.727 C 32.473 75.109 32.383 75.492 32.313 75.883 C 32.242 76.27 32.191 76.656 32.152 77.051 C 32.109 77.441 32.082 77.836 32.063 78.227 C 32.051 78.621 32.051 79.016 32.063 79.406 C 32.082 79.801 32.109 80.195 32.152 80.586 C 32.191 80.977 32.242 81.367 32.313 81.754 C 32.383 82.141 32.473 82.527 32.563 82.91 C 32.66 83.289 32.77 83.668 32.891 84.039 C 33.012 84.418 33.152 84.785 33.301 85.152 C 33.449 85.516 33.609 85.875 33.781 86.227 C 33.961 86.578 34.152 86.926 34.34 87.266 C 34.539 87.605 34.75 87.938 34.98 88.262 C 35.199 88.59 35.43 88.906 35.68 89.215 C 35.922 89.523 36.18 89.82 36.441 90.113 C 36.711 90.402 36.98 90.684 37.27 90.953 C 37.551 91.227 37.852 91.484 38.16 91.734 C 38.461 91.984 38.77 92.223 39.09 92.453 C 39.41 92.68 39.742 92.898 40.082 93.102 C 40.41 93.309 40.762 93.5 41.109 93.68 C 41.461 93.859 41.813 94.031 42.172 94.184 C 42.539 94.34 42.902 94.484 43.27 94.613 C 43.652 94.738 44.02 94.859 44.402 94.961 C 44.781 95.063 45.172 95.152 45.551 95.23 C 45.941 95.305 46.332 95.367 46.723 95.418 C 47.109 95.465 47.5 95.5 47.891 95.52 C 48.289 95.543 48.68 95.551 49.082 95.543 C 49.473 95.535 49.859 95.512 50.262 95.48 C 50.652 95.441 51.039 95.395 51.43 95.332 C 51.813 95.273 52.199 95.195 52.582 95.105 C 52.973 95.016 53.352 94.914 53.723 94.797 C 54.102 94.68 54.473 94.551 54.84 94.406 C 55.211 94.266 55.57 94.109 55.922 93.945 C 56.281 93.773 56.633 93.594 56.973 93.398 C 57.313 93.211 57.652 93.004 57.98 92.785 C 58.313 92.57 58.633 92.344 58.941 92.102 C 59.262 91.863 59.563 91.613 59.852 91.352 C 60.152 91.09 60.441 90.82 60.711 90.539 C 60.992 90.262 61.25 89.969 61.512 89.672 C 61.762 89.371 62.012 89.063 62.242 88.742 C 62.473 88.43 62.699 88.102 62.91 87.77 C 63.121 87.438 63.32 87.098 63.512 86.75 C 63.691 86.402 63.871 86.051 64.031 85.691 C 64.191 85.336 64.34 84.969 64.473 84.602 C 64.609 84.23 64.73 83.855 64.84 83.48 C 64.961 83.102 65.051 82.719 65.133 82.336 C 65.211 81.949 65.281 81.563 65.34 81.172 C 65.402 80.781 65.441 80.391 65.473 79.996 C 65.492 79.605 65.5 79.211 65.5 78.816 Z M 65.5 78.816" fill="none" stroke="currentColor" stroke-width="1.5" stroke-linecap="round" stroke-linejoin="round"/>

<text x="19.9" y="92.2" font-size="11" fill="currentColor" font-family="Georgia, 'Times New Roman', serif">3</text>
<text x="65.3" y="60.3" font-size="11" fill="currentColor" font-family="Georgia, 'Times New Roman', serif">4</text>
<text x="26.9" y="47.9" font-size="11" fill="currentColor" font-family="Georgia, 'Times New Roman', serif">6</text>
</svg>