<svg xmlns="http://www.w3.org/2000/svg" viewBox="-3.56 -11.36 101.49 97.14">
<path d="M 93.925781 81.777344 L 48.207031 2.59375 L 2.488281 81.777344 L 93.925781 81.777344 " fill="#9ca3af" fill-opacity="0.5"/>
<path d="M 53.058594 52.582031 L 57.917969 51.277344 L 56.617188 49.023438 L 53.058594 52.582031 " fill="white"/>
<path d="M 70.785156 42.347656 L 65.925781 43.648438 L 67.226562 45.90625 L 70.785156 42.347656 " fill="white"/>
<path d="M 50.425781 38.386719 L 51.277344 37.539062 L 53.949219 42.882812 L 57.230469 33.527344 L 62.453125 33.527344 L 62.453125 33.894531 L 57.230469 33.894531 L 53.828125 43.734375 L 51.035156 38.269531 L 50.425781 38.753906 " fill="#9ca3af" fill-opacity="0.5"/>
<path d="M 93.926 81.777 L 48.207 2.594 L 2.488 81.777 Z M 93.926 81.777" fill="none" stroke="currentColor" stroke-width="1.5" stroke-linecap="round" stroke-linejoin="round"/>
<path d="M 57.348 60.664 L 48.207 44.824 L 39.063 60.664 Z M 57.348 60.664" fill="none" stroke="currentColor" stroke-width="1.5" stroke-linecap="round" stroke-linejoin="round"/>
<path d="M 57.266 50.152 L 66.574 44.777" fill="none" stroke="currentColor" stroke-width="1.5" stroke-linecap="round" stroke-linejoin="round"/>
<path d="M 53.059 52.582 L 57.918 51.277 L 56.617 49.023 Z M 53.059 52.582" fill="none" stroke="currentColor" stroke-width="1.5" stroke-linecap="round" stroke-linejoin="round"/>
<path d="M 70.785 42.348 L 65.926 43.648 L 67.227 45.906 Z M 70.785 42.348" fill="none" stroke="currentColor" stroke-width="1.5" stroke-linecap="round" stroke-linejoin="round"/>
<path d="M 69.852 40.082 L 72.281 44.289" fill="none" stroke="currentColor" stroke-width="1.5" stroke-linecap="round" stroke-linejoin="round"/>
<path d="M 51.563 50.641 L 53.992 54.848" fill="none" stroke="currentColor" stroke-width="1.5" stroke-linecap="round" stroke-linejoin="round"/>
<path d="M 50.426 38.387 L 51.277 37.539 L 53.949 42.883 L 57.23 33.527 L 62.453 33.527 L 62.453 33.895 L 57.23 33.895 L 53.828 43.734 L 51.035 38.27 L 50.426 38.754 Z M 50.426 38.387" fill="none" stroke="currentColor" stroke-width="1.5" stroke-linecap="round" stroke-linejoin="round"/>

<text x="57.2" y="42" font-size="11" fill="currentColor" font-family="Georgia, 'Times New Roman', serif">√3</text>
</svg>