<svg xmlns="http://www.w3.org/2000/svg" viewBox="-4.38 -11.38 98.88 103.22">
<path d="M 7.054688 0.710938 L 2.492188 87.839844 L 57.101562 72.179688 L 90.492188 26.222656 L 7.054688 0.710938 " fill="#9ca3af" fill-opacity="0.5"/>
<path d="M 7.063 0.719 L 2.5 87.848 L 57.109 72.187 L 90.5 26.23 Z M 7.063 0.719" fill="none" stroke="currentColor" stroke-width="1.5" stroke-linecap="round" stroke-linejoin="round"/>
<path d="M 7.063 0.719 L 57.109 72.184" fill="none" stroke="currentColor" stroke-width="1.5" stroke-linecap="round" stroke-linejoin="round"/>
<path d="M 6.227 16.652 C 6.504 16.668 6.781 16.676 7.059 16.676 C 14.25 16.676 20.332 11.922 22.324 5.383" fill="none" stroke="currentColor" stroke-width="1.5" stroke-linecap="round" stroke-linejoin="round"/>
<path d="M 15.008 27.246 L 30.289 27.246 L 30.289 15.332 L 15.008 15.332 Z M 15.008 27.246" fill="none" stroke="currentColor" stroke-width="1.5" stroke-linecap="round" stroke-linejoin="round"/>
<path d="M 75.234 21.559 C 74.785 23.035 74.539 24.602 74.539 26.223 C 74.539 31.531 77.129 36.234 81.117 39.137" fill="none" stroke="currentColor" stroke-width="1.5" stroke-linecap="round" stroke-linejoin="round"/>
<path d="M 17.844 83.445 C 16.008 77.023 10.25 72.262 3.332 71.906" fill="none" stroke="currentColor" stroke-width="1.5" stroke-linecap="round" stroke-linejoin="round"/>
<path d="M 0.117 43.207 L 9.445 45.359" fill="none" stroke="currentColor" stroke-width="1.5" stroke-linecap="round" stroke-linejoin="round"/>
<path d="M 36.422 34.43 L 27.746 38.477" fill="none" stroke="currentColor" stroke-width="1.5" stroke-linecap="round" stroke-linejoin="round"/>
<path d="M 46.605 17.738 L 50.953 9.207" fill="none" stroke="currentColor" stroke-width="1.5" stroke-linecap="round" stroke-linejoin="round"/>

<text x="13.4" y="70.6" font-size="11" fill="currentColor" font-family="Georgia, 'Times New Roman', serif" font-style="italic">x°</text>
<text x="62.5" y="36.4" font-size="11" fill="currentColor" font-family="Georgia, 'Times New Roman', serif" font-style="italic">x°</text>
<text x="17.7" y="25.2" font-size="11" fill="currentColor" font-family="Georgia, 'Times New Roman', serif" font-style="italic">x°</text>
</svg>