<svg xmlns="http://www.w3.org/2000/svg" viewBox="-6.08 -12.08 167.77 109.53">

<path d="M 13.832 73.609 L 73.359 73.609 L 73.359 33.922 L 13.832 33.922 Z M 13.832 73.609" fill="none" stroke="currentColor" stroke-width="1.5" stroke-linecap="round" stroke-linejoin="round"/>
<path d="M 13.832 73.609 L 43.594 33.922 L 43.594 73.609" fill="none" stroke="currentColor" stroke-width="1.5" stroke-linecap="round" stroke-linejoin="round"/>
<path d="M 43.594 33.922 L 73.359 73.609" fill="none" stroke="currentColor" stroke-width="1.5" stroke-linecap="round" stroke-linejoin="round"/>
<path d="M 98.16 53.766 L 127.926 14.082 L 157.691 53.766 L 127.926 93.449 Z M 98.16 53.766" fill="none" stroke="currentColor" stroke-width="1.5" stroke-linecap="round" stroke-linejoin="round"/>
<path d="M 127.926 93.449 L 127.926 14.082" fill="none" stroke="currentColor" stroke-width="1.5" stroke-linecap="round" stroke-linejoin="round"/>
<path d="M 98.16 53.766 L 157.691 53.766" fill="none" stroke="currentColor" stroke-width="1.5" stroke-linecap="round" stroke-linejoin="round"/>
<path d="M 20.332 24.004 L 66.859 24.004" fill="none" stroke="currentColor" stroke-width="1.5" stroke-linecap="round" stroke-linejoin="round"/>
<path d="M 14.332 24.004 L 20.332 25.609 L 20.332 22.395 Z M 14.332 24.004" fill="none" stroke="currentColor" stroke-width="1.5" stroke-linecap="round" stroke-linejoin="round"/>
<path d="M 72.859 24.004 L 66.859 22.395 L 66.859 25.609 Z M 72.859 24.004" fill="none" stroke="currentColor" stroke-width="1.5" stroke-linecap="round" stroke-linejoin="round"/>
<path d="M 73.359 20.254 L 73.359 27.754" fill="none" stroke="currentColor" stroke-width="1.5" stroke-linecap="round" stroke-linejoin="round"/>
<path d="M 13.832 20.254 L 13.832 27.754" fill="none" stroke="currentColor" stroke-width="1.5" stroke-linecap="round" stroke-linejoin="round"/>
<path d="M 3.91 67.109 L 3.91 40.422" fill="none" stroke="currentColor" stroke-width="1.5" stroke-linecap="round" stroke-linejoin="round"/>
<path d="M 3.91 73.109 L 5.52 67.109 L 2.305 67.109 Z M 3.91 73.109" fill="none" stroke="currentColor" stroke-width="1.5" stroke-linecap="round" stroke-linejoin="round"/>
<path d="M 3.91 34.422 L 2.305 40.422 L 5.52 40.422 Z M 3.91 34.422" fill="none" stroke="currentColor" stroke-width="1.5" stroke-linecap="round" stroke-linejoin="round"/>
<path d="M 0.16 33.922 L 7.66 33.922" fill="none" stroke="currentColor" stroke-width="1.5" stroke-linecap="round" stroke-linejoin="round"/>
<path d="M 0.16 73.609 L 7.66 73.609" fill="none" stroke="currentColor" stroke-width="1.5" stroke-linecap="round" stroke-linejoin="round"/>
<text x="40.6" y="27.5" font-size="13" fill="currentColor" font-family="Georgia, 'Times New Roman', serif" text-anchor="middle">3</text>
<text x="-1.5" y="58" font-size="13" fill="currentColor" font-family="Georgia, 'Times New Roman', serif">2</text>
</svg>