<svg xmlns="http://www.w3.org/2000/svg" viewBox="-4.38 -12.67 149.39 166.91">

<path d="M 25.098 124.844 L 118.141 124.844 L 118.141 92.277 L 80.922 92.277 L 80.922 36.449 L 25.098 36.449 Z M 25.098 124.844" fill="none" stroke="currentColor" stroke-width="1.5" stroke-linecap="round" stroke-linejoin="round"/>
<path d="M 25.098 92.277 L 80.922 92.277 L 80.922 124.844" fill="none" stroke="currentColor" stroke-width="1.5" stroke-linecap="round" stroke-linejoin="round"/>
<path d="M 111.641 143.266 L 31.598 143.266" fill="none" stroke="currentColor" stroke-width="1.5" stroke-linecap="round" stroke-linejoin="round"/>
<path d="M 117.641 143.266 L 111.641 141.66 L 111.641 144.875 Z M 117.641 143.266" fill="none" stroke="currentColor" stroke-width="1.5" stroke-linecap="round" stroke-linejoin="round"/>
<path d="M 25.598 143.266 L 31.598 144.875 L 31.598 141.66 Z M 25.598 143.266" fill="none" stroke="currentColor" stroke-width="1.5" stroke-linecap="round" stroke-linejoin="round"/>
<path d="M 25.098 147.016 L 25.098 139.516" fill="none" stroke="currentColor" stroke-width="1.5" stroke-linecap="round" stroke-linejoin="round"/>
<path d="M 118.141 147.016 L 118.141 139.516" fill="none" stroke="currentColor" stroke-width="1.5" stroke-linecap="round" stroke-linejoin="round"/>
<path d="M 135.148 98.777 L 135.148 118.344" fill="none" stroke="currentColor" stroke-width="1.5" stroke-linecap="round" stroke-linejoin="round"/>
<path d="M 135.148 92.777 L 133.539 98.777 L 136.758 98.777 Z M 135.148 92.777" fill="none" stroke="currentColor" stroke-width="1.5" stroke-linecap="round" stroke-linejoin="round"/>
<path d="M 135.148 124.344 L 136.758 118.344 L 133.539 118.344 Z M 135.148 124.344" fill="none" stroke="currentColor" stroke-width="1.5" stroke-linecap="round" stroke-linejoin="round"/>
<path d="M 138.898 124.844 L 131.398 124.844" fill="none" stroke="currentColor" stroke-width="1.5" stroke-linecap="round" stroke-linejoin="round"/>
<path d="M 138.898 92.277 L 131.398 92.277" fill="none" stroke="currentColor" stroke-width="1.5" stroke-linecap="round" stroke-linejoin="round"/>
<path d="M 31.598 19.441 L 74.422 19.441" fill="none" stroke="currentColor" stroke-width="1.5" stroke-linecap="round" stroke-linejoin="round"/>
<path d="M 25.598 19.441 L 31.598 21.051 L 31.598 17.836 Z M 25.598 19.441" fill="none" stroke="currentColor" stroke-width="1.5" stroke-linecap="round" stroke-linejoin="round"/>
<path d="M 80.422 19.441 L 74.422 17.836 L 74.422 21.051 Z M 80.422 19.441" fill="none" stroke="currentColor" stroke-width="1.5" stroke-linecap="round" stroke-linejoin="round"/>
<path d="M 80.922 15.691 L 80.922 23.191" fill="none" stroke="currentColor" stroke-width="1.5" stroke-linecap="round" stroke-linejoin="round"/>
<path d="M 25.098 15.691 L 25.098 23.191" fill="none" stroke="currentColor" stroke-width="1.5" stroke-linecap="round" stroke-linejoin="round"/>
<path d="M 8.09 118.344 L 8.09 42.949" fill="none" stroke="currentColor" stroke-width="1.5" stroke-linecap="round" stroke-linejoin="round"/>
<path d="M 8.09 124.344 L 9.695 118.344 L 6.48 118.344 Z M 8.09 124.344" fill="none" stroke="currentColor" stroke-width="1.5" stroke-linecap="round" stroke-linejoin="round"/>
<path d="M 8.09 36.949 L 6.48 42.949 L 9.695 42.949 Z M 8.09 36.949" fill="none" stroke="currentColor" stroke-width="1.5" stroke-linecap="round" stroke-linejoin="round"/>
<path d="M 4.34 36.449 L 11.84 36.449" fill="none" stroke="currentColor" stroke-width="1.5" stroke-linecap="round" stroke-linejoin="round"/>
<path d="M 4.34 124.844 L 11.84 124.844" fill="none" stroke="currentColor" stroke-width="1.5" stroke-linecap="round" stroke-linejoin="round"/>
<text x="14.06" y="136.09" font-size="13" fill="currentColor" font-family="Georgia, 'Times New Roman', serif" font-style="italic">P</text>
<text x="76.46" y="137.24" font-size="13" fill="currentColor" font-family="Georgia, 'Times New Roman', serif" font-style="italic">T</text>
<text x="120.77" y="136.37" font-size="13" fill="currentColor" font-family="Georgia, 'Times New Roman', serif" font-style="italic">Q</text>
<text x="121.46" y="89.52" font-size="13" fill="currentColor" font-family="Georgia, 'Times New Roman', serif" font-style="italic">R</text>
<text x="84.4" y="89.52" font-size="13" fill="currentColor" font-family="Georgia, 'Times New Roman', serif" font-style="italic">X</text>
<text x="83.23" y="33.45" font-size="13" fill="currentColor" font-family="Georgia, 'Times New Roman', serif" font-style="italic">U</text>
<text x="13.19" y="33.45" font-size="13" fill="currentColor" font-family="Georgia, 'Times New Roman', serif" font-style="italic">V</text>
<text x="14.26" y="96.54" font-size="13" fill="currentColor" font-family="Georgia, 'Times New Roman', serif" font-style="italic">S</text>
<text x="68.55" y="147.24" font-size="13" fill="currentColor" font-family="Georgia, 'Times New Roman', serif" font-style="italic">b</text>
<text x="132.02" y="111.09" font-size="13" fill="currentColor" font-family="Georgia, 'Times New Roman', serif" font-style="italic">a</text>
<text x="50.25" y="21.97" font-size="13" fill="currentColor" font-family="Georgia, 'Times New Roman', serif" font-style="italic">c</text>
<text x="4.94" y="84.62" font-size="13" fill="currentColor" font-family="Georgia, 'Times New Roman', serif" font-style="italic">d</text>
</svg>