<svg xmlns="http://www.w3.org/2000/svg" viewBox="-4 -12.66 101.33 92.93">
<path d="M 82.652344 42.878906 C 82.652344 24.4375 67.703125 9.484375 49.257812 9.484375 C 30.8125 9.484375 15.859375 24.4375 15.859375 42.878906 C 15.859375 61.324219 30.8125 76.277344 49.257812 76.277344 C 67.703125 76.277344 82.652344 61.324219 82.652344 42.878906 " fill="#9ca3af" fill-opacity="0.5"/>
<path d="M 71.800781 53.734375 C 71.800781 41.285156 61.707031 31.191406 49.257812 31.191406 C 36.808594 31.191406 26.714844 41.285156 26.714844 53.734375 C 26.714844 66.183594 36.808594 76.277344 49.257812 76.277344 C 61.707031 76.277344 71.800781 66.183594 71.800781 53.734375 " fill="white"/>
<path d="M 60.109375 20.339844 C 60.109375 14.34375 55.253906 9.484375 49.257812 9.484375 C 43.261719 9.484375 38.402344 14.34375 38.402344 20.339844 C 38.402344 26.332031 43.261719 31.191406 49.257812 31.191406 C 55.253906 31.191406 60.109375 26.332031 60.109375 20.339844 " fill="white"/>
<path d="M 82.652 42.879 C 82.652 24.437 67.703 9.484 49.258 9.484 C 30.813 9.484 15.859 24.437 15.859 42.879 C 15.859 61.324 30.813 76.277 49.258 76.277 C 67.703 76.277 82.652 61.324 82.652 42.879 Z M 82.652 42.879" fill="none" stroke="currentColor" stroke-width="1.5" stroke-linecap="round" stroke-linejoin="round"/>
<path d="M 71.801 53.734 C 71.801 41.285 61.707 31.191 49.258 31.191 C 36.809 31.191 26.715 41.285 26.715 53.734 C 26.715 66.184 36.809 76.277 49.258 76.277 C 61.707 76.277 71.801 66.184 71.801 53.734 Z M 71.801 53.734" fill="none" stroke="currentColor" stroke-width="1.5" stroke-linecap="round" stroke-linejoin="round"/>
<path d="M 60.109 20.34 C 60.109 14.344 55.254 9.484 49.258 9.484 C 43.262 9.484 38.402 14.344 38.402 20.34 C 38.402 26.332 43.262 31.191 49.258 31.191 C 55.254 31.191 60.109 26.332 60.109 20.34 Z M 60.109 20.34" fill="none" stroke="currentColor" stroke-width="1.5" stroke-linecap="round" stroke-linejoin="round"/>
<path d="M 80.551 31.191 L 17.965 31.191" fill="none" stroke="currentColor" stroke-width="1.5" stroke-linecap="round" stroke-linejoin="round"/>
<text x="5.79" y="35.44" font-size="13" fill="currentColor" font-family="Georgia, 'Times New Roman', serif" font-style="italic">P</text>
<text x="84.33" y="34.38" font-size="13" fill="currentColor" font-family="Georgia, 'Times New Roman', serif" font-style="italic">Q</text>
</svg>