<svg xmlns="http://www.w3.org/2000/svg" viewBox="-4.16 -11.88 172.96 107.17">

<path d="M 104.817 81.402 L 104.817 59.226 L 121.445 81.402 Z M 104.817 81.402" fill="none" stroke="currentColor" stroke-width="1.5" stroke-linecap="round" stroke-linejoin="round"/>
<path d="M 121.445 81.402 L 121.445 59.226 L 138.074 81.402 Z M 121.445 81.402" fill="none" stroke="currentColor" stroke-width="1.5" stroke-linecap="round" stroke-linejoin="round"/>
<path d="M 104.817 59.226 L 104.817 37.055 L 121.445 59.226 Z M 104.817 59.226" fill="none" stroke="currentColor" stroke-width="1.5" stroke-linecap="round" stroke-linejoin="round"/>
<path d="M 138.074 81.402 L 138.074 59.226 L 154.703 81.402 Z M 138.074 81.402" fill="none" stroke="currentColor" stroke-width="1.5" stroke-linecap="round" stroke-linejoin="round"/>
<path d="M 121.445 59.226 L 121.445 37.055 L 138.074 59.226 Z M 121.445 59.226" fill="none" stroke="currentColor" stroke-width="1.5" stroke-linecap="round" stroke-linejoin="round"/>
<path d="M 104.817 37.055 L 104.817 14.883 L 121.445 37.055 Z M 104.817 37.055" fill="none" stroke="currentColor" stroke-width="1.5" stroke-linecap="round" stroke-linejoin="round"/>
<path d="M 82.645 81.402 L 104.817 64.769 L 104.817 81.402 Z M 82.645 81.402" fill="none" stroke="currentColor" stroke-width="1.5" stroke-linecap="round" stroke-linejoin="round"/>
<path d="M 60.473 81.402 L 82.645 64.769 L 82.645 81.402 Z M 60.473 81.402" fill="none" stroke="currentColor" stroke-width="1.5" stroke-linecap="round" stroke-linejoin="round"/>
<path d="M 82.645 64.769 L 104.817 48.14 L 104.817 64.769 Z M 82.645 64.769" fill="none" stroke="currentColor" stroke-width="1.5" stroke-linecap="round" stroke-linejoin="round"/>
<path d="M 38.301 81.402 L 60.473 64.769 L 60.473 81.402 Z M 38.301 81.402" fill="none" stroke="currentColor" stroke-width="1.5" stroke-linecap="round" stroke-linejoin="round"/>
<path d="M 60.473 64.769 L 82.645 48.14 L 82.645 64.769 Z M 60.473 64.769" fill="none" stroke="currentColor" stroke-width="1.5" stroke-linecap="round" stroke-linejoin="round"/>
<path d="M 82.645 48.14 L 104.817 31.512 L 104.817 48.14 Z M 82.645 48.14" fill="none" stroke="currentColor" stroke-width="1.5" stroke-linecap="round" stroke-linejoin="round"/>
<path d="M 16.129 81.402 L 38.301 64.769 L 38.301 81.402 Z M 16.129 81.402" fill="none" stroke="currentColor" stroke-width="1.5" stroke-linecap="round" stroke-linejoin="round"/>
<path d="M 38.301 64.769 L 60.473 48.14 L 60.473 64.769 Z M 38.301 64.769" fill="none" stroke="currentColor" stroke-width="1.5" stroke-linecap="round" stroke-linejoin="round"/>
<path d="M 60.473 48.14 L 82.645 31.512 L 82.645 48.14 Z M 60.473 48.14" fill="none" stroke="currentColor" stroke-width="1.5" stroke-linecap="round" stroke-linejoin="round"/>
<path d="M 82.645 31.512 L 104.817 14.883 L 104.817 31.512 Z M 82.645 31.512" fill="none" stroke="currentColor" stroke-width="1.5" stroke-linecap="round" stroke-linejoin="round"/>

<text x="5.2" y="87.7" font-size="13" fill="currentColor" font-family="Georgia, 'Times New Roman', serif">P</text>
<text x="157.8" y="88.3" font-size="13" fill="currentColor" font-family="Georgia, 'Times New Roman', serif">Q</text>
<text x="102.5" y="11.4" font-size="13" fill="currentColor" font-family="Georgia, 'Times New Roman', serif">R</text>
</svg>