<svg xmlns="http://www.w3.org/2000/svg" viewBox="-0.19 -0.63 120.89 65.69">
<path d="M 116.695312 59.816406 C 116.695312 28.644531 91.425781 3.375 60.25 3.375 C 29.078125 3.375 3.808594 28.644531 3.808594 59.816406 L 116.695312 59.816406 " fill="#9ca3af" fill-opacity="0.5"/>
<path d="M 32.03125 59.816406 L 88.472656 59.816406 L 88.472656 31.597656 L 32.03125 31.597656 Z M 32.03125 59.816406 " fill="white"/>
<path d="M 60.25 59.816406 C 60.25 44.230469 47.617188 31.597656 32.03125 31.597656 C 16.441406 31.597656 3.808594 44.230469 3.808594 59.816406 Z M 116.695312 59.816406 C 116.695312 44.230469 104.058594 31.597656 88.472656 31.597656 C 72.886719 31.597656 60.25 44.230469 60.25 59.816406 Z M 88.472656 31.597656 C 88.472656 16.011719 75.839844 3.375 60.25 3.375 C 44.664062 3.375 32.03125 16.011719 32.03125 31.597656 L 88.472656 31.597656 " fill="white"/>
<path d="M 33.28125 59.816406 C 33.28125 59.128906 32.71875 58.566406 32.03125 58.566406 C 31.339844 58.566406 30.78125 59.128906 30.78125 59.816406 C 30.78125 60.507812 31.339844 61.066406 32.03125 61.066406 C 32.71875 61.066406 33.28125 60.507812 33.28125 59.816406 " fill="white"/>
<path d="M 61.5 59.816406 C 61.5 59.128906 60.941406 58.566406 60.25 58.566406 C 59.5625 58.566406 59 59.128906 59 59.816406 C 59 60.507812 59.5625 61.066406 60.25 61.066406 C 60.941406 61.066406 61.5 60.507812 61.5 59.816406 " fill="white"/>
<path d="M 61.5 31.597656 C 61.5 30.90625 60.941406 30.347656 60.25 30.347656 C 59.5625 30.347656 59 30.90625 59 31.597656 C 59 32.285156 59.5625 32.847656 60.25 32.847656 C 60.941406 32.847656 61.5 32.285156 61.5 31.597656 " fill="white"/>
<path d="M 89.722656 59.816406 C 89.722656 59.128906 89.164062 58.566406 88.472656 58.566406 C 87.78125 58.566406 87.222656 59.128906 87.222656 59.816406 C 87.222656 60.507812 87.78125 61.066406 88.472656 61.066406 C 89.164062 61.066406 89.722656 60.507812 89.722656 59.816406 " fill="white"/>
<path d="M 116.695 59.816 C 116.695 28.645 91.426 3.375 60.25 3.375 C 29.078 3.375 3.809 28.645 3.809 59.816 Z M 116.695 59.816" fill="none" stroke="currentColor" stroke-width="1.5" stroke-linecap="round" stroke-linejoin="round"/>
<path d="M 60.25 59.816 C 60.25 44.23 47.617 31.598 32.031 31.598 C 16.441 31.598 3.809 44.23 3.809 59.816 Z M 60.25 59.816" fill="none" stroke="currentColor" stroke-width="1.5" stroke-linecap="round" stroke-linejoin="round"/>
<path d="M 116.695 59.816 C 116.695 44.23 104.059 31.598 88.473 31.598 C 72.887 31.598 60.25 44.23 60.25 59.816 Z M 116.695 59.816" fill="none" stroke="currentColor" stroke-width="1.5" stroke-linecap="round" stroke-linejoin="round"/>
<path d="M 88.473 31.598 C 88.473 16.012 75.84 3.375 60.25 3.375 C 44.664 3.375 32.031 16.012 32.031 31.598 Z M 88.473 31.598" fill="none" stroke="currentColor" stroke-width="1.5" stroke-linecap="round" stroke-linejoin="round"/>
<path d="M 33.281 59.816 C 33.281 59.129 32.719 58.566 32.031 58.566 C 31.34 58.566 30.781 59.129 30.781 59.816 C 30.781 60.508 31.34 61.066 32.031 61.066 C 32.719 61.066 33.281 60.508 33.281 59.816 Z M 33.281 59.816" fill="none" stroke="currentColor" stroke-width="1.5" stroke-linecap="round" stroke-linejoin="round"/>
<path d="M 33.281 59.816 C 33.281 59.129 32.719 58.566 32.031 58.566 C 31.34 58.566 30.781 59.129 30.781 59.816 C 30.781 60.508 31.34 61.066 32.031 61.066 C 32.719 61.066 33.281 60.508 33.281 59.816 Z M 33.281 59.816" fill="none" stroke="currentColor" stroke-width="1.5" stroke-linecap="round" stroke-linejoin="round"/>
<path d="M 61.5 59.816 C 61.5 59.129 60.941 58.566 60.25 58.566 C 59.563 58.566 59 59.129 59 59.816 C 59 60.508 59.563 61.066 60.25 61.066 C 60.941 61.066 61.5 60.508 61.5 59.816 Z M 61.5 59.816" fill="none" stroke="currentColor" stroke-width="1.5" stroke-linecap="round" stroke-linejoin="round"/>
<path d="M 61.5 59.816 C 61.5 59.129 60.941 58.566 60.25 58.566 C 59.563 58.566 59 59.129 59 59.816 C 59 60.508 59.563 61.066 60.25 61.066 C 60.941 61.066 61.5 60.508 61.5 59.816 Z M 61.5 59.816" fill="none" stroke="currentColor" stroke-width="1.5" stroke-linecap="round" stroke-linejoin="round"/>
<path d="M 61.5 31.598 C 61.5 30.906 60.941 30.348 60.25 30.348 C 59.563 30.348 59 30.906 59 31.598 C 59 32.285 59.563 32.848 60.25 32.848 C 60.941 32.848 61.5 32.285 61.5 31.598 Z M 61.5 31.598" fill="none" stroke="currentColor" stroke-width="1.5" stroke-linecap="round" stroke-linejoin="round"/>
<path d="M 61.5 31.598 C 61.5 30.906 60.941 30.348 60.25 30.348 C 59.563 30.348 59 30.906 59 31.598 C 59 32.285 59.563 32.848 60.25 32.848 C 60.941 32.848 61.5 32.285 61.5 31.598 Z M 61.5 31.598" fill="none" stroke="currentColor" stroke-width="1.5" stroke-linecap="round" stroke-linejoin="round"/>
<path d="M 89.723 59.816 C 89.723 59.129 89.164 58.566 88.473 58.566 C 87.781 58.566 87.223 59.129 87.223 59.816 C 87.223 60.508 87.781 61.066 88.473 61.066 C 89.164 61.066 89.723 60.508 89.723 59.816 Z M 89.723 59.816" fill="none" stroke="currentColor" stroke-width="1.5" stroke-linecap="round" stroke-linejoin="round"/>
<path d="M 89.723 59.816 C 89.723 59.129 89.164 58.566 88.473 58.566 C 87.781 58.566 87.223 59.129 87.223 59.816 C 87.223 60.508 87.781 61.066 88.473 61.066 C 89.164 61.066 89.723 60.508 89.723 59.816 Z M 89.723 59.816" fill="none" stroke="currentColor" stroke-width="1.5" stroke-linecap="round" stroke-linejoin="round"/>


</svg>