<svg xmlns="http://www.w3.org/2000/svg" viewBox="-0.31 -0.36 91.52 84.11">
<path d="M 87.210938 15.648438 L 76.183594 13.675781 C 76.070312 14.316406 76.011719 14.976562 76.011719 15.648438 C 76.011719 19.464844 77.917969 22.832031 80.828125 24.855469 L 87.210938 15.648438 " fill="#9ca3af" fill-opacity="0.5"/>
<path d="M 42.75 79.742188 L 49.933594 69.386719 C 48.933594 68.691406 47.828125 68.136719 46.644531 67.753906 L 42.75 79.742188 " fill="#9ca3af" fill-opacity="0.5"/>
<path d="M 20.113281 3.636719 L 28.042969 9.398438 C 28.898438 8.226562 29.5 6.851562 29.761719 5.367188 L 20.113281 3.636719 " fill="#9ca3af" fill-opacity="0.5"/>
<path d="M 47.977 63.656 L 58.434 31.476 L 31.063 11.59 L 3.691 31.476 L 14.145 63.656 Z M 47.977 63.656" fill="none" stroke="currentColor" stroke-width="1.5" stroke-linecap="round" stroke-linejoin="round"/>
<path d="M 20.113 3.637 L 87.211 15.648 L 42.75 79.742 L 58.434 31.476 Z M 20.113 3.637" fill="none" stroke="currentColor" stroke-width="1.5" stroke-linecap="round" stroke-linejoin="round"/>
<path d="M 76.184 13.676 C 76.07 14.316 76.012 14.976 76.012 15.648 C 76.012 19.465 77.918 22.832 80.828 24.855" fill="none" stroke="currentColor" stroke-width="1.5" stroke-linecap="round" stroke-linejoin="round"/>
<path d="M 49.934 69.387 C 48.934 68.691 47.828 68.137 46.645 67.754" fill="none" stroke="currentColor" stroke-width="1.5" stroke-linecap="round" stroke-linejoin="round"/>
<path d="M 28.043 9.398 C 28.899 8.226 29.5 6.851 29.762 5.367" fill="none" stroke="currentColor" stroke-width="1.5" stroke-linecap="round" stroke-linejoin="round"/>


</svg>