<svg xmlns="http://www.w3.org/2000/svg" viewBox="-3.78 -13.47 343.45 74.37">

<path d="M 3.41 3.793 L 23.492 3.793 L 43.57 23.871 L 23.492 43.949 L 3.41 23.871 Z M 3.41 3.793" fill="none" stroke="currentColor" stroke-width="1.5" stroke-linecap="round" stroke-linejoin="round"/>
<path d="M 3.41 23.871 L 23.492 3.793 L 23.492 43.949" fill="none" stroke="currentColor" stroke-width="1.5" stroke-linecap="round" stroke-linejoin="round"/>
<path d="M 3.41 23.871 L 43.57 23.871" fill="none" stroke="currentColor" stroke-width="1.5" stroke-linecap="round" stroke-linejoin="round"/>
<path d="M 138.328 2.859 L 158.406 2.859 L 178.488 22.941 L 178.488 43.02 L 158.406 43.02 L 158.406 22.941 L 138.328 22.941 Z M 138.328 2.859" fill="none" stroke="currentColor" stroke-width="1.5" stroke-linecap="round" stroke-linejoin="round"/>
<path d="M 138.328 22.941 L 158.406 2.859 L 158.406 22.941 L 178.488 22.941 L 158.406 43.02" fill="none" stroke="currentColor" stroke-width="1.5" stroke-linecap="round" stroke-linejoin="round"/>
<path d="M 273.242 23.746 L 293.711 3.281 L 334.645 3.281 L 293.711 44.215 L 293.711 23.746 Z M 273.242 23.746" fill="none" stroke="currentColor" stroke-width="1.5" stroke-linecap="round" stroke-linejoin="round"/>
<path d="M 293.711 3.281 L 293.711 23.746 L 314.176 3.281 L 314.176 23.746 L 293.711 23.746" fill="none" stroke="currentColor" stroke-width="1.5" stroke-linecap="round" stroke-linejoin="round"/>

<text x="4" y="53.4" font-size="13" fill="currentColor" font-family="Georgia, 'Times New Roman', serif">P</text>
<text x="138.9" y="53" font-size="13" fill="currentColor" font-family="Georgia, 'Times New Roman', serif">Q</text>
<text x="273.8" y="53.9" font-size="13" fill="currentColor" font-family="Georgia, 'Times New Roman', serif">R</text>
</svg>