<svg xmlns="http://www.w3.org/2000/svg" viewBox="-3.16 -5.2 157.16 36.47">

<path d="M 6.016 27.262 L 13.508 27.262 L 13.508 4.789 L 6.016 4.789 Z M 6.016 27.262" fill="none" stroke="currentColor" stroke-width="1.5" stroke-linecap="round" stroke-linejoin="round"/>
<path d="M 13.508 27.262 L 35.977 27.262 L 35.977 19.77 L 13.508 19.77 Z M 13.508 27.262" fill="none" stroke="currentColor" stroke-width="1.5" stroke-linecap="round" stroke-linejoin="round"/>
<path d="M 35.977 27.262 L 43.469 27.262 L 43.469 4.789 L 35.977 4.789 Z M 35.977 27.262" fill="none" stroke="currentColor" stroke-width="1.5" stroke-linecap="round" stroke-linejoin="round"/>
<path d="M 43.469 27.262 L 65.938 27.262 L 65.938 19.77 L 43.469 19.77 Z M 43.469 27.262" fill="none" stroke="currentColor" stroke-width="1.5" stroke-linecap="round" stroke-linejoin="round"/>
<path d="M 65.938 27.262 L 73.426 27.262 L 73.426 4.789 L 65.938 4.789 Z M 65.938 27.262" fill="none" stroke="currentColor" stroke-width="1.5" stroke-linecap="round" stroke-linejoin="round"/>
<path d="M 73.426 27.262 L 95.898 27.262 L 95.898 19.77 L 73.426 19.77 Z M 73.426 27.262" fill="none" stroke="currentColor" stroke-width="1.5" stroke-linecap="round" stroke-linejoin="round"/>
<path d="M 95.898 27.262 L 103.387 27.262 L 103.387 4.789 L 95.898 4.789 Z M 95.898 27.262" fill="none" stroke="currentColor" stroke-width="1.5" stroke-linecap="round" stroke-linejoin="round"/>
<path d="M 103.387 27.262 L 125.859 27.262 L 125.859 19.77 L 103.387 19.77 Z M 103.387 27.262" fill="none" stroke="currentColor" stroke-width="1.5" stroke-linecap="round" stroke-linejoin="round"/>
<text x="143" y="24" font-size="12" fill="currentColor" font-family="Georgia, 'Times New Roman', serif">⋯</text>
</svg>