<svg xmlns="http://www.w3.org/2000/svg" viewBox="-118 1.77 209.69 64.61">

<path d="M -26.238 62.383 L 2.066 62.383 L 2.066 48.23 L -26.238 48.23 Z M -26.238 62.383" fill="none" stroke="currentColor" stroke-width="1.5" stroke-linecap="round" stroke-linejoin="round"/>
<path d="M 2.066 62.383 L 30.371 62.383 L 30.371 48.23 L 2.066 48.23 Z M 2.066 62.383" fill="none" stroke="currentColor" stroke-width="1.5" stroke-linecap="round" stroke-linejoin="round"/>
<path d="M 30.371 62.383 L 58.676 62.383 L 58.676 48.23 L 30.371 48.23 Z M 30.371 62.383" fill="none" stroke="currentColor" stroke-width="1.5" stroke-linecap="round" stroke-linejoin="round"/>
<path d="M 58.676 62.383 L 86.98 62.383 L 86.98 48.23 L 58.676 48.23 Z M 58.676 62.383" fill="none" stroke="currentColor" stroke-width="1.5" stroke-linecap="round" stroke-linejoin="round"/>
<path d="M -12.086 48.23 L 16.219 48.23 L 16.219 34.074 L -12.086 34.074 Z M -12.086 48.23" fill="none" stroke="currentColor" stroke-width="1.5" stroke-linecap="round" stroke-linejoin="round"/>
<path d="M 16.219 48.23 L 44.523 48.23 L 44.523 34.074 L 16.219 34.074 Z M 16.219 48.23" fill="none" stroke="currentColor" stroke-width="1.5" stroke-linecap="round" stroke-linejoin="round"/>
<path d="M 44.523 48.23 L 72.828 48.23 L 72.828 34.074 L 44.523 34.074 Z M 44.523 48.23" fill="none" stroke="currentColor" stroke-width="1.5" stroke-linecap="round" stroke-linejoin="round"/>
<path d="M 2.066 34.074 L 30.371 34.074 L 30.371 19.926 L 2.066 19.926 Z M 2.066 34.074" fill="none" stroke="currentColor" stroke-width="1.5" stroke-linecap="round" stroke-linejoin="round"/>
<path d="M 30.371 34.074 L 58.676 34.074 L 58.676 19.926 L 30.371 19.926 Z M 30.371 34.074" fill="none" stroke="currentColor" stroke-width="1.5" stroke-linecap="round" stroke-linejoin="round"/>
<path d="M 16.219 19.926 L 44.523 19.926 L 44.523 5.77 L 16.219 5.77 Z M 16.219 19.926" fill="none" stroke="currentColor" stroke-width="1.5" stroke-linecap="round" stroke-linejoin="round"/>
<g font-size="11" fill="currentColor" font-family="Georgia, 'Times New Roman', serif" text-anchor="end">
<text x="-58" y="29.5">third row</text>
<text x="-58" y="44.5">second row</text>
</g>
<g fill="none" stroke="currentColor" stroke-width="1.4" stroke-linecap="round" stroke-linejoin="round">
<path d="M -54 26 L -14 26"/>
<path d="M -14 26 L -19 23.5 M -14 26 L -19 28.5"/>
<path d="M -54 41 L -14 41"/>
<path d="M -14 41 L -19 38.5 M -14 41 L -19 43.5"/>
</g>

</svg>