<svg xmlns="http://www.w3.org/2000/svg" viewBox="-9.16 -12.61 153.84 73.37">

<path d="M 11.848 30.23 C 11.848 25.531 8.039 21.727 3.344 21.727 C -1.352 21.727 -5.16 25.531 -5.16 30.23 C -5.16 34.926 -1.352 38.734 3.344 38.734 C 8.039 38.734 11.848 34.926 11.848 30.23 Z M 11.848 30.23" fill="none" stroke="currentColor" stroke-width="1.5" stroke-linecap="round" stroke-linejoin="round"/>
<path d="M 28.855 30.23 C 28.855 25.531 25.051 21.727 20.352 21.727 C 15.656 21.727 11.848 25.531 11.848 30.23 C 11.848 34.926 15.656 38.734 20.352 38.734 C 25.051 38.734 28.855 34.926 28.855 30.23 Z M 28.855 30.23" fill="none" stroke="currentColor" stroke-width="1.5" stroke-linecap="round" stroke-linejoin="round"/>
<path d="M 45.863 30.23 C 45.863 25.531 42.059 21.727 37.359 21.727 C 32.664 21.727 28.855 25.531 28.855 30.23 C 28.855 34.926 32.664 38.734 37.359 38.734 C 42.059 38.734 45.863 34.926 45.863 30.23 Z M 45.863 30.23" fill="none" stroke="currentColor" stroke-width="1.5" stroke-linecap="round" stroke-linejoin="round"/>
<path d="M 62.871 30.23 C 62.871 25.531 59.066 21.727 54.367 21.727 C 49.672 21.727 45.863 25.531 45.863 30.23 C 45.863 34.926 49.672 38.734 54.367 38.734 C 59.066 38.734 62.871 34.926 62.871 30.23 Z M 62.871 30.23" fill="none" stroke="currentColor" stroke-width="1.5" stroke-linecap="round" stroke-linejoin="round"/>
<path d="M 3.344 38.734 L 54.367 38.734 C 59.066 38.734 62.871 34.926 62.871 30.23 C 62.871 25.531 59.066 21.727 54.367 21.727 L 3.344 21.727 C -1.352 21.727 -5.16 25.531 -5.16 30.23 C -5.16 34.926 -1.352 38.734 3.344 38.734 Z M 3.344 38.734" fill="none" stroke="currentColor" stroke-width="1.5" stroke-linecap="round" stroke-linejoin="round"/>
<path d="M 105.391 44.961 C 105.391 40.262 101.586 36.457 96.887 36.457 C 92.191 36.457 88.383 40.262 88.383 44.961 C 88.383 49.656 92.191 53.465 96.887 53.465 C 101.586 53.465 105.391 49.656 105.391 44.961 Z M 105.391 44.961" fill="none" stroke="currentColor" stroke-width="1.5" stroke-linecap="round" stroke-linejoin="round"/>
<path d="M 122.398 44.961 C 122.398 40.262 118.594 36.457 113.895 36.457 C 109.199 36.457 105.391 40.262 105.391 44.961 C 105.391 49.656 109.199 53.465 113.895 53.465 C 118.594 53.465 122.398 49.656 122.398 44.961 Z M 122.398 44.961" fill="none" stroke="currentColor" stroke-width="1.5" stroke-linecap="round" stroke-linejoin="round"/>
<path d="M 139.406 44.961 C 139.406 40.262 135.602 36.457 130.902 36.457 C 126.207 36.457 122.398 40.262 122.398 44.961 C 122.398 49.656 126.207 53.465 130.902 53.465 C 135.602 53.465 139.406 49.656 139.406 44.961 Z M 139.406 44.961" fill="none" stroke="currentColor" stroke-width="1.5" stroke-linecap="round" stroke-linejoin="round"/>
<path d="M 113.895 30.23 C 113.895 25.531 110.09 21.727 105.391 21.727 C 100.695 21.727 96.887 25.531 96.887 30.23 C 96.887 34.926 100.695 38.734 105.391 38.734 C 110.09 38.734 113.895 34.926 113.895 30.23 Z M 113.895 30.23" fill="none" stroke="currentColor" stroke-width="1.5" stroke-linecap="round" stroke-linejoin="round"/>
<path d="M 130.902 30.23 C 130.902 25.531 127.098 21.727 122.398 21.727 C 117.703 21.727 113.895 25.531 113.895 30.23 C 113.895 34.926 117.703 38.734 122.398 38.734 C 127.098 38.734 130.902 34.926 130.902 30.23 Z M 130.902 30.23" fill="none" stroke="currentColor" stroke-width="1.5" stroke-linecap="round" stroke-linejoin="round"/>
<path d="M 122.398 15.5 C 122.398 10.805 118.594 6.996 113.895 6.996 C 109.199 6.996 105.391 10.805 105.391 15.5 C 105.391 20.195 109.199 24.004 113.895 24.004 C 118.594 24.004 122.398 20.195 122.398 15.5 Z M 122.398 15.5" fill="none" stroke="currentColor" stroke-width="1.5" stroke-linecap="round" stroke-linejoin="round"/>
<path d="M 138.27 40.707 L 121.262 11.246 C 119.789 8.707 117.043 6.996 113.895 6.996 C 110.75 6.996 108 8.707 106.531 11.246 L 89.523 40.707 C 88.797 41.957 88.383 43.41 88.383 44.961 C 88.383 49.656 92.191 53.465 96.887 53.465 L 130.902 53.465 C 135.602 53.465 139.406 49.656 139.406 44.961 C 139.406 43.41 138.992 41.957 138.27 40.707 Z M 138.27 40.707" fill="none" stroke="currentColor" stroke-width="1.5" stroke-linecap="round" stroke-linejoin="round"/>
<text x="24.17" y="53.76" font-size="13" fill="currentColor" font-family="Georgia, 'Times New Roman', serif" font-style="italic">X</text>
<text x="87.94" y="21.02" font-size="13" fill="currentColor" font-family="Georgia, 'Times New Roman', serif" font-style="italic">Y</text>
</svg>