<svg xmlns="http://www.w3.org/2000/svg" viewBox="-3.66 -13.47 250.31 40.65">

<path d="M 29.66 23.184 L 58.574 23.184 L 58.574 3.906 L 29.66 3.906 Z M 29.66 23.184" fill="none" stroke="currentColor" stroke-width="1.5" stroke-linecap="round" stroke-linejoin="round"/>
<path d="M 82.668 23.184 L 111.582 23.184 L 111.582 3.906 L 82.668 3.906 Z M 82.668 23.184" fill="none" stroke="currentColor" stroke-width="1.5" stroke-linecap="round" stroke-linejoin="round"/>
<path d="M 135.676 23.184 L 164.59 23.184 L 164.59 3.906 L 135.676 3.906 Z M 135.676 23.184" fill="none" stroke="currentColor" stroke-width="1.5" stroke-linecap="round" stroke-linejoin="round"/>
<path d="M 188.684 23.184 L 217.598 23.184 L 217.598 3.906 L 188.684 3.906 Z M 188.684 23.184" fill="none" stroke="currentColor" stroke-width="1.5" stroke-linecap="round" stroke-linejoin="round"/>
<path d="M 23.992 13.547 L 5.566 13.547" fill="none" stroke="currentColor" stroke-width="1.5" stroke-linecap="round" stroke-linejoin="round"/>
<path d="M 29.66 13.547 L 23.992 12.027 L 23.992 15.066 Z M 29.66 13.547" fill="none" stroke="currentColor" stroke-width="1.5" stroke-linecap="round" stroke-linejoin="round"/>
<path d="M 77 13.547 L 58.574 13.547" fill="none" stroke="currentColor" stroke-width="1.5" stroke-linecap="round" stroke-linejoin="round"/>
<path d="M 82.668 13.547 L 77 12.027 L 77 15.066 Z M 82.668 13.547" fill="none" stroke="currentColor" stroke-width="1.5" stroke-linecap="round" stroke-linejoin="round"/>
<path d="M 130.008 13.547 L 111.582 13.547" fill="none" stroke="currentColor" stroke-width="1.5" stroke-linecap="round" stroke-linejoin="round"/>
<path d="M 135.676 13.547 L 130.008 12.027 L 130.008 15.066 Z M 135.676 13.547" fill="none" stroke="currentColor" stroke-width="1.5" stroke-linecap="round" stroke-linejoin="round"/>
<path d="M 183.016 13.547 L 164.59 13.547" fill="none" stroke="currentColor" stroke-width="1.5" stroke-linecap="round" stroke-linejoin="round"/>
<path d="M 188.684 13.547 L 183.016 12.027 L 183.016 15.066 Z M 188.684 13.547" fill="none" stroke="currentColor" stroke-width="1.5" stroke-linecap="round" stroke-linejoin="round"/>
<path d="M 236.023 13.547 L 217.598 13.547" fill="none" stroke="currentColor" stroke-width="1.5" stroke-linecap="round" stroke-linejoin="round"/>
<path d="M 241.691 13.547 L 236.023 12.027 L 236.023 15.066 Z M 241.691 13.547" fill="none" stroke="currentColor" stroke-width="1.5" stroke-linecap="round" stroke-linejoin="round"/>
<path d="M 242.656 23.184 L 242.656 18.363" fill="none" stroke="currentColor" stroke-width="1.5" stroke-linecap="round" stroke-linejoin="round"/>
<g font-size="12" fill="currentColor" font-family="Georgia, 'Times New Roman', serif" text-anchor="middle">
<text x="44.1" y="18">÷3</text>
<text x="97.1" y="18">–10</text>
<text x="150.1" y="18">÷3</text>
<text x="203.1" y="18">–10</text>
</g>
</svg>