<svg xmlns="http://www.w3.org/2000/svg" viewBox="-4.34 -12.72 139.07 135.91">

<path d="M 48.223 63.621 L 21.219 63.621 L 21.219 36.617 Z M 48.223 63.621" fill="none" stroke="currentColor" stroke-width="1.5" stroke-linecap="round" stroke-linejoin="round"/>
<path d="M 21.219 36.617 L 40.317 17.519 L 48.223 63.621" fill="none" stroke="currentColor" stroke-width="1.5" stroke-linecap="round" stroke-linejoin="round"/>
<path d="M 40.317 17.519 L 66.93 12.953 L 48.223 63.621" fill="none" stroke="currentColor" stroke-width="1.5" stroke-linecap="round" stroke-linejoin="round"/>
<path d="M 66.93 12.953 L 92.266 22.308 L 48.223 63.621" fill="none" stroke="currentColor" stroke-width="1.5" stroke-linecap="round" stroke-linejoin="round"/>
<path d="M 92.266 22.308 L 110.739 42.004 L 48.223 63.621" fill="none" stroke="currentColor" stroke-width="1.5" stroke-linecap="round" stroke-linejoin="round"/>
<path d="M 110.739 42.004 L 119.567 67.523 L 48.223 63.621" fill="none" stroke="currentColor" stroke-width="1.5" stroke-linecap="round" stroke-linejoin="round"/>
<path d="M 119.567 67.523 L 118.09 94.488 L 48.223 63.621" fill="none" stroke="currentColor" stroke-width="1.5" stroke-linecap="round" stroke-linejoin="round"/>
<path d="M 118.09 94.488 L 107.176 119.191 L 48.223 63.621" fill="none" stroke="currentColor" stroke-width="1.5" stroke-linecap="round" stroke-linejoin="round"/>
<path d="M 25.188 63.621 L 25.188 59.656 L 21.219 59.656" fill="none" stroke="currentColor" stroke-width="1.5" stroke-linecap="round" stroke-linejoin="round"/>
<path d="M 24.024 39.422 L 26.828 36.617 L 24.024 33.812" fill="none" stroke="currentColor" stroke-width="1.5" stroke-linecap="round" stroke-linejoin="round"/>
<path d="M 40.985 21.429 L 44.895 20.761 L 44.223 16.851" fill="none" stroke="currentColor" stroke-width="1.5" stroke-linecap="round" stroke-linejoin="round"/>
<path d="M 65.555 16.676 L 69.278 18.051 L 70.653 14.328" fill="none" stroke="currentColor" stroke-width="1.5" stroke-linecap="round" stroke-linejoin="round"/>
<path d="M 89.371 25.023 L 92.086 27.914 L 94.977 25.199" fill="none" stroke="currentColor" stroke-width="1.5" stroke-linecap="round" stroke-linejoin="round"/>
<path d="M 106.992 43.301 L 108.289 47.051 L 112.035 45.754" fill="none" stroke="currentColor" stroke-width="1.5" stroke-linecap="round" stroke-linejoin="round"/>
<path d="M 115.606 67.308 L 115.387 71.269 L 119.348 71.484" fill="none" stroke="currentColor" stroke-width="1.5" stroke-linecap="round" stroke-linejoin="round"/>
<path d="M 114.461 92.887 L 112.86 96.515 L 116.489 98.117" fill="none" stroke="currentColor" stroke-width="1.5" stroke-linecap="round" stroke-linejoin="round"/>
<text x="11.87" y="54.48" font-size="13" fill="currentColor" font-family="Georgia, 'Times New Roman', serif">1</text>
<text x="25.1" y="24.39" font-size="13" fill="currentColor" font-family="Georgia, 'Times New Roman', serif">1</text>
<text x="50.4" y="12.34" font-size="13" fill="currentColor" font-family="Georgia, 'Times New Roman', serif">1</text>
<text x="78.82" y="14.95" font-size="13" fill="currentColor" font-family="Georgia, 'Times New Roman', serif">1</text>
<text x="103.55" y="30.1" font-size="13" fill="currentColor" font-family="Georgia, 'Times New Roman', serif">1</text>
<text x="117.83" y="56.21" font-size="13" fill="currentColor" font-family="Georgia, 'Times New Roman', serif">1</text>
<text x="121.73" y="85.37" font-size="13" fill="currentColor" font-family="Georgia, 'Times New Roman', serif">1</text>
<text x="115.31" y="114.11" font-size="13" fill="currentColor" font-family="Georgia, 'Times New Roman', serif">1</text>
<text x="31.49" y="75.24" font-size="13" fill="currentColor" font-family="Georgia, 'Times New Roman', serif">1</text>
<text x="68.89" y="99.56" font-size="13" fill="currentColor" font-family="Georgia, 'Times New Roman', serif" font-style="italic">x</text>
</svg>