<svg xmlns="http://www.w3.org/2000/svg" viewBox="1.65 -10.82 91.48 91.48">
<path d="M 26.519531 55.792969 L 68.261719 55.792969 L 68.261719 14.054688 L 26.519531 14.054688 Z M 26.519531 55.792969 " fill="#9ca3af" fill-opacity="0.5"/>
<path d="M 76.90625 76.664062 C 76.90625 60.363281 63.691406 47.148438 47.390625 47.148438 C 31.089844 47.148438 17.875 60.363281 17.875 76.664062 L 76.90625 76.664062 " fill="white"/>
<path d="M 89.132812 5.410156 C 72.832031 5.410156 59.617188 18.625 59.617188 34.925781 C 59.617188 51.226562 72.832031 64.441406 89.132812 64.441406 L 89.132812 5.410156 " fill="white"/>
<path d="M 17.875 -6.816406 C 17.875 9.484375 31.089844 22.699219 47.390625 22.699219 C 63.691406 22.699219 76.90625 9.484375 76.90625 -6.816406 L 17.875 -6.816406 " fill="white"/>
<path d="M 5.648438 64.441406 C 21.949219 64.441406 35.164062 51.226562 35.164062 34.925781 C 35.164062 18.625 21.949219 5.410156 5.648438 5.410156 L 5.648438 64.441406 " fill="white"/>
<path d="M 76.906 76.664 C 76.906 60.363 63.691 47.148 47.391 47.148 C 31.09 47.148 17.875 60.363 17.875 76.664 Z M 76.906 76.664" fill="none" stroke="currentColor" stroke-width="1.5" stroke-linecap="round" stroke-linejoin="round"/>
<path d="M 89.133 5.41 C 72.832 5.41 59.617 18.625 59.617 34.926 C 59.617 51.227 72.832 64.441 89.133 64.441 Z M 89.133 5.41" fill="none" stroke="currentColor" stroke-width="1.5" stroke-linecap="round" stroke-linejoin="round"/>
<path d="M 17.875 -6.816 C 17.875 9.484 31.09 22.699 47.391 22.699 C 63.691 22.699 76.906 9.484 76.906 -6.816 Z M 17.875 -6.816" fill="none" stroke="currentColor" stroke-width="1.5" stroke-linecap="round" stroke-linejoin="round"/>
<path d="M 5.648 64.441 C 21.949 64.441 35.164 51.227 35.164 34.926 C 35.164 18.625 21.949 5.41 5.648 5.41 Z M 5.648 64.441" fill="none" stroke="currentColor" stroke-width="1.5" stroke-linecap="round" stroke-linejoin="round"/>
<path d="M 5.648 76.664 L 89.133 76.664 L 89.133 -6.816 L 5.648 -6.816 Z M 5.648 76.664" fill="none" stroke="currentColor" stroke-width="1.5" stroke-linecap="round" stroke-linejoin="round"/>

</svg>