<svg xmlns="http://www.w3.org/2000/svg" viewBox="-8.71 -1.74 120.89 120.89">
<path d="M 31.035156 86.925781 C 31.035156 82.769531 27.664062 79.402344 23.507812 79.402344 C 19.351562 79.402344 15.984375 82.769531 15.984375 86.925781 C 15.984375 91.085938 19.351562 94.453125 23.507812 94.453125 C 27.664062 94.453125 31.035156 91.085938 31.035156 86.925781 " fill="#9ca3af" fill-opacity="0.5"/>
<path d="M 31.035 86.926 C 31.035 82.77 27.664 79.402 23.508 79.402 C 19.352 79.402 15.984 82.77 15.984 86.926 C 15.984 91.086 19.352 94.453 23.508 94.453 C 27.664 94.453 31.035 91.086 31.035 86.926 Z M 31.035 86.926" fill="none" stroke="currentColor" stroke-width="1.5" stroke-linecap="round" stroke-linejoin="round"/>
<path d="M 14.102 96.336 L 89.359 96.336 L 89.359 21.078 L 14.102 21.078 Z M 14.102 96.336" fill="none" stroke="currentColor" stroke-width="1.5" stroke-linecap="round" stroke-linejoin="round"/>
<path d="M 14.102 77.52 L 89.359 77.52" fill="none" stroke="currentColor" stroke-width="1.5" stroke-linecap="round" stroke-linejoin="round" stroke-dasharray="4 3"/>
<path d="M 32.914 96.336 L 32.914 21.078" fill="none" stroke="currentColor" stroke-width="1.5" stroke-linecap="round" stroke-linejoin="round" stroke-dasharray="4 3"/>
<path d="M 14.102 58.707 L 89.359 58.707" fill="none" stroke="currentColor" stroke-width="1.5" stroke-linecap="round" stroke-linejoin="round" stroke-dasharray="4 3"/>
<path d="M 51.73 96.336 L 51.73 21.078" fill="none" stroke="currentColor" stroke-width="1.5" stroke-linecap="round" stroke-linejoin="round" stroke-dasharray="4 3"/>
<path d="M 14.102 39.891 L 89.359 39.891" fill="none" stroke="currentColor" stroke-width="1.5" stroke-linecap="round" stroke-linejoin="round" stroke-dasharray="4 3"/>
<path d="M 70.547 96.336 L 70.547 21.078" fill="none" stroke="currentColor" stroke-width="1.5" stroke-linecap="round" stroke-linejoin="round" stroke-dasharray="4 3"/>
<path d="M 32.914 21.078 L 32.914 2.262" fill="none" stroke="currentColor" stroke-width="1.5" stroke-linecap="round" stroke-linejoin="round" stroke-dasharray="4 3"/>
<path d="M 32.914 96.336 L 32.914 115.148" fill="none" stroke="currentColor" stroke-width="1.5" stroke-linecap="round" stroke-linejoin="round" stroke-dasharray="4 3"/>
<path d="M 14.102 77.52 L -4.711 77.52" fill="none" stroke="currentColor" stroke-width="1.5" stroke-linecap="round" stroke-linejoin="round" stroke-dasharray="4 3"/>
<path d="M 89.359 77.52 L 108.176 77.52" fill="none" stroke="currentColor" stroke-width="1.5" stroke-linecap="round" stroke-linejoin="round" stroke-dasharray="4 3"/>
<path d="M 51.73 21.078 L 51.73 2.262" fill="none" stroke="currentColor" stroke-width="1.5" stroke-linecap="round" stroke-linejoin="round" stroke-dasharray="4 3"/>
<path d="M 51.73 96.336 L 51.73 115.148" fill="none" stroke="currentColor" stroke-width="1.5" stroke-linecap="round" stroke-linejoin="round" stroke-dasharray="4 3"/>
<path d="M 14.102 58.707 L -4.711 58.707" fill="none" stroke="currentColor" stroke-width="1.5" stroke-linecap="round" stroke-linejoin="round" stroke-dasharray="4 3"/>
<path d="M 89.359 58.707 L 108.176 58.707" fill="none" stroke="currentColor" stroke-width="1.5" stroke-linecap="round" stroke-linejoin="round" stroke-dasharray="4 3"/>
<path d="M 70.547 21.078 L 70.547 2.262" fill="none" stroke="currentColor" stroke-width="1.5" stroke-linecap="round" stroke-linejoin="round" stroke-dasharray="4 3"/>
<path d="M 70.547 96.336 L 70.547 115.148" fill="none" stroke="currentColor" stroke-width="1.5" stroke-linecap="round" stroke-linejoin="round" stroke-dasharray="4 3"/>
<path d="M 14.102 39.891 L -4.711 39.891" fill="none" stroke="currentColor" stroke-width="1.5" stroke-linecap="round" stroke-linejoin="round" stroke-dasharray="4 3"/>
<path d="M 89.359 39.891 L 108.176 39.891" fill="none" stroke="currentColor" stroke-width="1.5" stroke-linecap="round" stroke-linejoin="round" stroke-dasharray="4 3"/>

</svg>