<svg xmlns="http://www.w3.org/2000/svg" viewBox="-2.13 1.99 91.54 81.58">
<path d="M 85.402344 78.335938 L 43.632812 5.992188 L 1.867188 78.335938 L 85.402344 78.335938 " fill="#9ca3af" fill-opacity="0.5"/>
<path d="M 59.417969 33.332031 C 52.210938 37.503906 47.363281 45.296875 47.363281 54.21875 C 47.363281 67.539062 58.160156 78.335938 71.476562 78.335938 C 75.871094 78.335938 79.988281 77.160156 83.535156 75.105469 L 59.417969 33.332031 " fill="#9ca3af" fill-opacity="0.5"/>
<path d="M 72.714844 54.21875 C 72.714844 53.539062 72.160156 52.984375 71.476562 52.984375 C 70.796875 52.984375 70.242188 53.539062 70.242188 54.21875 C 70.242188 54.902344 70.796875 55.457031 71.476562 55.457031 C 72.160156 55.457031 72.714844 54.902344 72.714844 54.21875 " fill="white"/>
<path d="M 17.652344 50.992188 C 21.199219 53.046875 25.316406 54.21875 29.710938 54.21875 C 43.027344 54.21875 53.824219 43.421875 53.824219 30.105469 C 53.824219 21.183594 48.976562 13.390625 41.769531 9.21875 L 17.652344 50.992188 " fill="#9ca3af" fill-opacity="0.5"/>
<path d="M 30.945312 30.105469 C 30.945312 29.425781 30.394531 28.871094 29.710938 28.871094 C 29.03125 28.871094 28.476562 29.425781 28.476562 30.105469 C 28.476562 30.789062 29.03125 31.339844 29.710938 31.339844 C 30.394531 31.339844 30.945312 30.789062 30.945312 30.105469 " fill="white"/>
<path d="M 53.824219 78.335938 C 53.824219 65.015625 43.027344 54.21875 29.710938 54.21875 C 16.394531 54.21875 5.597656 65.015625 5.597656 78.335938 L 53.824219 78.335938 " fill="#9ca3af" fill-opacity="0.5"/>
<path d="M 30.945312 78.335938 C 30.945312 77.652344 30.394531 77.097656 29.710938 77.097656 C 29.03125 77.097656 28.476562 77.652344 28.476562 78.335938 C 28.476562 79.015625 29.03125 79.570312 29.710938 79.570312 C 30.394531 79.570312 30.945312 79.015625 30.945312 78.335938 " fill="white"/>
<path d="M 85.402 78.336 L 43.633 5.992 L 1.867 78.336 Z M 85.402 78.336" fill="none" stroke="currentColor" stroke-width="1.5" stroke-linecap="round" stroke-linejoin="round"/>
<path d="M 59.418 33.332 C 52.211 37.504 47.363 45.297 47.363 54.219 C 47.363 67.539 58.16 78.336 71.476 78.336 C 75.871 78.336 79.988 77.16 83.535 75.105 Z M 59.418 33.332" fill="none" stroke="currentColor" stroke-width="1.5" stroke-linecap="round" stroke-linejoin="round"/>
<path d="M 72.715 54.219 C 72.715 53.539 72.16 52.984 71.476 52.984 C 70.797 52.984 70.242 53.539 70.242 54.219 C 70.242 54.902 70.797 55.457 71.476 55.457 C 72.16 55.457 72.715 54.902 72.715 54.219 Z M 72.715 54.219" fill="none" stroke="currentColor" stroke-width="1.5" stroke-linecap="round" stroke-linejoin="round"/>
<path d="M 72.715 54.219 C 72.715 53.539 72.16 52.984 71.476 52.984 C 70.797 52.984 70.242 53.539 70.242 54.219 C 70.242 54.902 70.797 55.457 71.476 55.457 C 72.16 55.457 72.715 54.902 72.715 54.219 Z M 72.715 54.219" fill="none" stroke="currentColor" stroke-width="1.5" stroke-linecap="round" stroke-linejoin="round"/>
<path d="M 17.652 50.992 C 21.199 53.047 25.316 54.219 29.711 54.219 C 43.027 54.219 53.824 43.422 53.824 30.105 C 53.824 21.184 48.976 13.391 41.769 9.219 Z M 17.652 50.992" fill="none" stroke="currentColor" stroke-width="1.5" stroke-linecap="round" stroke-linejoin="round"/>
<path d="M 30.945 30.105 C 30.945 29.426 30.394 28.871 29.711 28.871 C 29.031 28.871 28.476 29.426 28.476 30.105 C 28.476 30.789 29.031 31.34 29.711 31.34 C 30.394 31.34 30.945 30.789 30.945 30.105 Z M 30.945 30.105" fill="none" stroke="currentColor" stroke-width="1.5" stroke-linecap="round" stroke-linejoin="round"/>
<path d="M 30.945 30.105 C 30.945 29.426 30.394 28.871 29.711 28.871 C 29.031 28.871 28.476 29.426 28.476 30.105 C 28.476 30.789 29.031 31.34 29.711 31.34 C 30.394 31.34 30.945 30.789 30.945 30.105 Z M 30.945 30.105" fill="none" stroke="currentColor" stroke-width="1.5" stroke-linecap="round" stroke-linejoin="round"/>
<path d="M 53.824 78.336 C 53.824 65.016 43.027 54.219 29.711 54.219 C 16.394 54.219 5.598 65.016 5.598 78.336 Z M 53.824 78.336" fill="none" stroke="currentColor" stroke-width="1.5" stroke-linecap="round" stroke-linejoin="round"/>
<path d="M 30.945 78.336 C 30.945 77.652 30.394 77.098 29.711 77.098 C 29.031 77.098 28.476 77.652 28.476 78.336 C 28.476 79.016 29.031 79.57 29.711 79.57 C 30.394 79.57 30.945 79.016 30.945 78.336 Z M 30.945 78.336" fill="none" stroke="currentColor" stroke-width="1.5" stroke-linecap="round" stroke-linejoin="round"/>
<path d="M 30.945 78.336 C 30.945 77.652 30.394 77.098 29.711 77.098 C 29.031 77.098 28.476 77.652 28.476 78.336 C 28.476 79.016 29.031 79.57 29.711 79.57 C 30.394 79.57 30.945 79.016 30.945 78.336 Z M 30.945 78.336" fill="none" stroke="currentColor" stroke-width="1.5" stroke-linecap="round" stroke-linejoin="round"/>


</svg>