<svg xmlns="http://www.w3.org/2000/svg" viewBox="-1.64 -1.3 90.66 46.57">
<path d="M 43.683594 41.273438 L 79.503906 41.273438 C 82.546875 41.273438 85.015625 38.804688 85.015625 35.761719 L 85.015625 8.210938 C 85.015625 5.164062 82.546875 2.699219 79.503906 2.699219 L 7.863281 2.699219 C 4.820312 2.699219 2.355469 5.164062 2.355469 8.210938 L 2.355469 35.761719 C 2.355469 38.804688 4.820312 41.273438 7.863281 41.273438 L 43.683594 41.273438 " fill="#f1f5f9"/>
<path d="M 45.75 17.851562 L 43.683594 15.785156 L 41.617188 17.851562 L 43.683594 19.917969 Z M 45.75 26.121094 L 43.683594 24.050781 L 41.617188 26.121094 L 43.683594 28.183594 L 45.75 26.121094 " fill="currentColor"/>
<path d="M 9.703125 34.386719 L 12.457031 31.628906 L 19.804688 31.628906 L 22.558594 34.386719 L 9.703125 34.386719 " fill="currentColor"/>
<path d="M 21.640625 21.527344 L 20.265625 20.148438 L 20.265625 12.800781 L 23.019531 10.046875 L 23.019531 20.148438 L 21.640625 21.527344 " fill="currentColor"/>
<path d="M 9.703125 9.585938 L 12.457031 12.34375 L 19.804688 12.34375 L 22.558594 9.585938 L 9.703125 9.585938 " fill="currentColor"/>
<path d="M 10.621094 22.445312 L 11.996094 23.824219 L 11.996094 31.171875 L 9.242188 33.925781 L 9.242188 23.824219 L 10.621094 22.445312 " fill="currentColor"/>
<path d="M 11.078125 21.984375 L 12.457031 23.363281 L 19.804688 23.363281 L 21.183594 21.984375 L 19.804688 20.609375 L 12.457031 20.609375 L 11.078125 21.984375 " fill="currentColor"/>
<path d="M 26.234375 34.386719 L 28.988281 31.628906 L 36.335938 31.628906 L 39.09375 34.386719 L 26.234375 34.386719 " fill="currentColor"/>
<path d="M 38.171875 22.445312 L 36.796875 23.824219 L 36.796875 31.171875 L 39.550781 33.925781 L 39.550781 23.824219 L 38.171875 22.445312 " fill="currentColor"/>
<path d="M 38.171875 21.527344 L 36.796875 20.148438 L 36.796875 12.800781 L 39.550781 10.046875 L 39.550781 20.148438 L 38.171875 21.527344 " fill="currentColor"/>
<path d="M 26.234375 9.585938 L 28.988281 12.34375 L 36.335938 12.34375 L 39.09375 9.585938 L 26.234375 9.585938 " fill="currentColor"/>
<path d="M 27.152344 21.527344 L 28.53125 20.148438 L 28.53125 12.800781 L 25.773438 10.046875 L 25.773438 20.148438 L 27.152344 21.527344 " fill="currentColor"/>
<path d="M 27.152344 22.445312 L 28.53125 23.824219 L 28.53125 31.171875 L 25.773438 33.925781 L 25.773438 23.824219 L 27.152344 22.445312 " fill="currentColor"/>
<path d="M 60.214844 22.445312 L 58.839844 23.824219 L 58.839844 31.171875 L 61.59375 33.925781 L 61.59375 23.824219 L 60.214844 22.445312 " fill="currentColor"/>
<path d="M 60.214844 21.527344 L 58.839844 20.148438 L 58.839844 12.800781 L 61.59375 10.046875 L 61.59375 20.148438 L 60.214844 21.527344 " fill="currentColor"/>
<path d="M 76.75 22.445312 L 75.371094 23.824219 L 75.371094 31.171875 L 78.125 33.925781 L 78.125 23.824219 L 76.75 22.445312 " fill="currentColor"/>
<path d="M 76.75 21.527344 L 75.371094 20.148438 L 75.371094 12.800781 L 78.125 10.046875 L 78.125 20.148438 L 76.75 21.527344 " fill="currentColor"/>
<path d="M 64.808594 9.585938 L 67.5625 12.34375 L 74.910156 12.34375 L 77.667969 9.585938 L 64.808594 9.585938 " fill="currentColor"/>
<path d="M 65.726562 21.527344 L 67.105469 20.148438 L 67.105469 12.800781 L 64.351562 10.046875 L 64.351562 20.148438 L 65.726562 21.527344 " fill="currentColor"/>
<path d="M 66.1875 21.984375 L 67.5625 23.363281 L 74.910156 23.363281 L 76.289062 21.984375 L 74.910156 20.609375 L 67.5625 20.609375 L 66.1875 21.984375 " fill="currentColor"/>
<path d="M 43.684 41.273 L 79.504 41.273 C 82.547 41.273 85.016 38.805 85.016 35.762 L 85.016 8.211 C 85.016 5.164 82.547 2.699 79.504 2.699 L 7.863 2.699 C 4.82 2.699 2.356 5.164 2.356 8.211 L 2.356 35.762 C 2.356 38.805 4.82 41.273 7.863 41.273 Z M 43.684 41.273" fill="none" stroke="currentColor" stroke-width="1.5" stroke-linecap="round" stroke-linejoin="round"/>
</svg>