<svg xmlns="http://www.w3.org/2000/svg" viewBox="-31.29 -29.38 149.73 149.74">
<path d="M -27.289062 92.726562 L 19.953125 116.351562 L -3.667969 92.726562 L 19.953125 69.105469 L -27.289062 92.726562 " fill="#9ca3af" fill-opacity="0.5"/>
<path d="M 114.441406 69.105469 L 67.195312 92.726562 L 90.820312 69.105469 L 67.195312 45.484375 L 114.441406 69.105469 " fill="#9ca3af" fill-opacity="0.5"/>
<path d="M -3.667969 92.726562 L 43.574219 116.351562 L 19.953125 92.726562 L 43.574219 69.105469 L -3.667969 92.726562 " fill="#9ca3af" fill-opacity="0.5"/>
<path d="M 90.820312 69.105469 L 43.574219 92.726562 L 67.195312 69.105469 L 43.574219 45.484375 L 90.820312 69.105469 " fill="#9ca3af" fill-opacity="0.5"/>
<path d="M 19.953125 92.726562 L 67.195312 116.351562 L 43.574219 92.726562 L 67.195312 69.105469 L 19.953125 92.726562 " fill="#9ca3af" fill-opacity="0.5"/>
<path d="M 67.195312 69.105469 L 19.953125 92.726562 L 43.574219 69.105469 L 19.953125 45.484375 L 67.195312 69.105469 " fill="#9ca3af" fill-opacity="0.5"/>
<path d="M 43.574219 92.726562 L 90.820312 116.351562 L 67.195312 92.726562 L 90.820312 69.105469 L 43.574219 92.726562 " fill="#9ca3af" fill-opacity="0.5"/>
<path d="M 43.574219 69.105469 L -3.667969 92.726562 L 19.953125 69.105469 L -3.667969 45.484375 L 43.574219 69.105469 " fill="#9ca3af" fill-opacity="0.5"/>
<path d="M 67.195312 92.726562 L 114.441406 116.351562 L 90.820312 92.726562 L 114.441406 69.105469 L 67.195312 92.726562 " fill="#9ca3af" fill-opacity="0.5"/>
<path d="M 19.953125 69.105469 L -27.289062 92.726562 L -3.667969 69.105469 L -27.289062 45.484375 L 19.953125 69.105469 " fill="#9ca3af" fill-opacity="0.5"/>
<path d="M -27.289062 45.484375 L 19.953125 69.105469 L -3.667969 45.484375 L 19.953125 21.863281 L -27.289062 45.484375 " fill="#9ca3af" fill-opacity="0.5"/>
<path d="M 114.441406 21.863281 L 67.195312 45.484375 L 90.820312 21.863281 L 67.195312 -1.761719 L 114.441406 21.863281 " fill="#9ca3af" fill-opacity="0.5"/>
<path d="M -3.667969 45.484375 L 43.574219 69.105469 L 19.953125 45.484375 L 43.574219 21.863281 L -3.667969 45.484375 " fill="#9ca3af" fill-opacity="0.5"/>
<path d="M 90.820312 21.863281 L 43.574219 45.484375 L 67.195312 21.863281 L 43.574219 -1.761719 L 90.820312 21.863281 " fill="#9ca3af" fill-opacity="0.5"/>
<path d="M 19.953125 45.484375 L 67.195312 69.105469 L 43.574219 45.484375 L 67.195312 21.863281 L 19.953125 45.484375 " fill="#9ca3af" fill-opacity="0.5"/>
<path d="M 67.195312 21.863281 L 19.953125 45.484375 L 43.574219 21.863281 L 19.953125 -1.761719 L 67.195312 21.863281 " fill="#9ca3af" fill-opacity="0.5"/>
<path d="M 43.574219 45.484375 L 90.820312 69.105469 L 67.195312 45.484375 L 90.820312 21.863281 L 43.574219 45.484375 " fill="#9ca3af" fill-opacity="0.5"/>
<path d="M 43.574219 21.863281 L -3.667969 45.484375 L 19.953125 21.863281 L -3.667969 -1.761719 L 43.574219 21.863281 " fill="#9ca3af" fill-opacity="0.5"/>
<path d="M 67.195312 45.484375 L 114.441406 69.105469 L 90.820312 45.484375 L 114.441406 21.863281 L 67.195312 45.484375 " fill="#9ca3af" fill-opacity="0.5"/>
<path d="M 19.953125 21.863281 L -27.289062 45.484375 L -3.667969 21.863281 L -27.289062 -1.761719 L 19.953125 21.863281 " fill="#9ca3af" fill-opacity="0.5"/>
<path d="M -27.289062 -1.761719 L 19.953125 21.863281 L -3.667969 -1.761719 L 19.953125 -25.382812 L -27.289062 -1.761719 " fill="#9ca3af" fill-opacity="0.5"/>
<path d="M -3.667969 -1.761719 L 43.574219 21.863281 L 19.953125 -1.761719 L 43.574219 -25.382812 L -3.667969 -1.761719 " fill="#9ca3af" fill-opacity="0.5"/>
<path d="M 19.953125 -1.761719 L 67.195312 21.863281 L 43.574219 -1.761719 L 67.195312 -25.382812 L 19.953125 -1.761719 " fill="#9ca3af" fill-opacity="0.5"/>
<path d="M 43.574219 -1.761719 L 90.820312 21.863281 L 67.195312 -1.761719 L 90.820312 -25.382812 L 43.574219 -1.761719 " fill="#9ca3af" fill-opacity="0.5"/>
<path d="M 67.195312 -1.761719 L 114.441406 21.863281 L 90.820312 -1.761719 L 114.441406 -25.382812 L 67.195312 -1.761719 " fill="#9ca3af" fill-opacity="0.5"/>
<path d="M -27.289 92.727 L 19.953 116.352 L -3.668 92.727 L 19.953 69.105 Z M -27.289 92.727" fill="none" stroke="currentColor" stroke-width="1.5" stroke-linecap="round" stroke-linejoin="round"/>
<path d="M 114.441 69.105 L 67.195 92.727 L 90.82 69.105 L 67.195 45.484 Z M 114.441 69.105" fill="none" stroke="currentColor" stroke-width="1.5" stroke-linecap="round" stroke-linejoin="round"/>
<path d="M -3.668 92.727 L 43.574 116.352 L 19.953 92.727 L 43.574 69.105 Z M -3.668 92.727" fill="none" stroke="currentColor" stroke-width="1.5" stroke-linecap="round" stroke-linejoin="round"/>
<path d="M 90.82 69.105 L 43.574 92.727 L 67.195 69.105 L 43.574 45.484 Z M 90.82 69.105" fill="none" stroke="currentColor" stroke-width="1.5" stroke-linecap="round" stroke-linejoin="round"/>
<path d="M 19.953 92.727 L 67.195 116.352 L 43.574 92.727 L 67.195 69.105 Z M 19.953 92.727" fill="none" stroke="currentColor" stroke-width="1.5" stroke-linecap="round" stroke-linejoin="round"/>
<path d="M 67.195 69.105 L 19.953 92.727 L 43.574 69.105 L 19.953 45.484 Z M 67.195 69.105" fill="none" stroke="currentColor" stroke-width="1.5" stroke-linecap="round" stroke-linejoin="round"/>
<path d="M 43.574 92.727 L 90.82 116.352 L 67.195 92.727 L 90.82 69.105 Z M 43.574 92.727" fill="none" stroke="currentColor" stroke-width="1.5" stroke-linecap="round" stroke-linejoin="round"/>
<path d="M 43.574 69.105 L -3.668 92.727 L 19.953 69.105 L -3.668 45.484 Z M 43.574 69.105" fill="none" stroke="currentColor" stroke-width="1.5" stroke-linecap="round" stroke-linejoin="round"/>
<path d="M 67.195 92.727 L 114.441 116.352 L 90.82 92.727 L 114.441 69.105 Z M 67.195 92.727" fill="none" stroke="currentColor" stroke-width="1.5" stroke-linecap="round" stroke-linejoin="round"/>
<path d="M 19.953 69.105 L -27.289 92.727 L -3.668 69.105 L -27.289 45.484 Z M 19.953 69.105" fill="none" stroke="currentColor" stroke-width="1.5" stroke-linecap="round" stroke-linejoin="round"/>
<path d="M -27.289 45.484 L 19.953 69.105 L -3.668 45.484 L 19.953 21.863 Z M -27.289 45.484" fill="none" stroke="currentColor" stroke-width="1.5" stroke-linecap="round" stroke-linejoin="round"/>
<path d="M 114.441 21.863 L 67.195 45.484 L 90.82 21.863 L 67.195 -1.762 Z M 114.441 21.863" fill="none" stroke="currentColor" stroke-width="1.5" stroke-linecap="round" stroke-linejoin="round"/>
<path d="M -3.668 45.484 L 43.574 69.105 L 19.953 45.484 L 43.574 21.863 Z M -3.668 45.484" fill="none" stroke="currentColor" stroke-width="1.5" stroke-linecap="round" stroke-linejoin="round"/>
<path d="M 90.82 21.863 L 43.574 45.484 L 67.195 21.863 L 43.574 -1.762 Z M 90.82 21.863" fill="none" stroke="currentColor" stroke-width="1.5" stroke-linecap="round" stroke-linejoin="round"/>
<path d="M 19.953 45.484 L 67.195 69.105 L 43.574 45.484 L 67.195 21.863 Z M 19.953 45.484" fill="none" stroke="currentColor" stroke-width="1.5" stroke-linecap="round" stroke-linejoin="round"/>
<path d="M 67.195 21.863 L 19.953 45.484 L 43.574 21.863 L 19.953 -1.762 Z M 67.195 21.863" fill="none" stroke="currentColor" stroke-width="1.5" stroke-linecap="round" stroke-linejoin="round"/>
<path d="M 43.574 45.484 L 90.82 69.105 L 67.195 45.484 L 90.82 21.863 Z M 43.574 45.484" fill="none" stroke="currentColor" stroke-width="1.5" stroke-linecap="round" stroke-linejoin="round"/>
<path d="M 43.574 21.863 L -3.668 45.484 L 19.953 21.863 L -3.668 -1.762 Z M 43.574 21.863" fill="none" stroke="currentColor" stroke-width="1.5" stroke-linecap="round" stroke-linejoin="round"/>
<path d="M 67.195 45.484 L 114.441 69.105 L 90.82 45.484 L 114.441 21.863 Z M 67.195 45.484" fill="none" stroke="currentColor" stroke-width="1.5" stroke-linecap="round" stroke-linejoin="round"/>
<path d="M 19.953 21.863 L -27.289 45.484 L -3.668 21.863 L -27.289 -1.762 Z M 19.953 21.863" fill="none" stroke="currentColor" stroke-width="1.5" stroke-linecap="round" stroke-linejoin="round"/>
<path d="M -27.289 -1.762 L 19.953 21.863 L -3.668 -1.762 L 19.953 -25.383 Z M -27.289 -1.762" fill="none" stroke="currentColor" stroke-width="1.5" stroke-linecap="round" stroke-linejoin="round"/>
<path d="M -3.668 -1.762 L 43.574 21.863 L 19.953 -1.762 L 43.574 -25.383 Z M -3.668 -1.762" fill="none" stroke="currentColor" stroke-width="1.5" stroke-linecap="round" stroke-linejoin="round"/>
<path d="M 19.953 -1.762 L 67.195 21.863 L 43.574 -1.762 L 67.195 -25.383 Z M 19.953 -1.762" fill="none" stroke="currentColor" stroke-width="1.5" stroke-linecap="round" stroke-linejoin="round"/>
<path d="M 43.574 -1.762 L 90.82 21.863 L 67.195 -1.762 L 90.82 -25.383 Z M 43.574 -1.762" fill="none" stroke="currentColor" stroke-width="1.5" stroke-linecap="round" stroke-linejoin="round"/>
<path d="M 67.195 -1.762 L 114.441 21.863 L 90.82 -1.762 L 114.441 -25.383 Z M 67.195 -1.762" fill="none" stroke="currentColor" stroke-width="1.5" stroke-linecap="round" stroke-linejoin="round"/>


</svg>