<svg xmlns="http://www.w3.org/2000/svg" viewBox="-4.2 -11.3 78.05 99.8">
<path d="M 30.949219 47.078125 L 17.992188 24.617188 L 5.019531 47.078125 L 30.949219 47.078125 " fill="#9ca3af" fill-opacity="0.5"/>
<path d="M 43.921875 69.539062 L 24.472656 35.851562 L 5.019531 69.539062 L 43.921875 69.539062 " fill="#9ca3af" fill-opacity="0.5"/>
<path d="M 69.851562 47.078125 L 43.921875 2.160156 L 17.992188 47.078125 L 69.851562 47.078125 " fill="#9ca3af" fill-opacity="0.5"/>
<path d="M 30.949219 47.078125 L 24.472656 35.851562 L 17.992188 47.078125 L 30.949219 47.078125 " fill="white"/>
<path d="M 30.949 47.078 L 17.992 24.617 L 5.02 47.078 Z M 30.949 47.078" fill="none" stroke="currentColor" stroke-width="1.5" stroke-linecap="round" stroke-linejoin="round"/>
<path d="M 43.922 69.539 L 24.473 35.852 L 5.02 69.539 Z M 43.922 69.539" fill="none" stroke="currentColor" stroke-width="1.5" stroke-linecap="round" stroke-linejoin="round"/>
<path d="M 69.852 47.078 L 43.922 2.16 L 17.992 47.078 Z M 69.852 47.078" fill="none" stroke="currentColor" stroke-width="1.5" stroke-linecap="round" stroke-linejoin="round"/>

<text x="29.2" y="43.7" font-size="11" fill="currentColor" font-family="Georgia, 'Times New Roman', serif">1</text>
<text x="2.8" y="37.8" font-size="11" fill="currentColor" font-family="Georgia, 'Times New Roman', serif">2</text>
<text x="19.5" y="81.5" font-size="11" fill="currentColor" font-family="Georgia, 'Times New Roman', serif">3</text>
<text x="60" y="27" font-size="11" fill="currentColor" font-family="Georgia, 'Times New Roman', serif">4</text>
</svg>