<svg xmlns="http://www.w3.org/2000/svg" viewBox="-13.16 -12.33 104.46 99.13">
<path d="M 38.722656 59.503906 L 50.019531 24.714844 L 20.429688 3.214844 L -9.160156 24.714844 L 2.140625 59.503906 L 38.722656 59.503906 " fill="#9ca3af" fill-opacity="0.5"/>
<path d="M 20.429688 3.214844 L -9.160156 24.714844 L 3.742188 42.472656 L 33.332031 20.96875 L 20.429688 3.214844 " fill="#9ca3af" fill-opacity="0.5"/>
<path d="M 38.723 59.504 L 50.02 24.715 L 20.43 3.215 L -9.16 24.715 L 2.141 59.504 Z M 38.723 59.504" fill="none" stroke="currentColor" stroke-width="1.5" stroke-linecap="round" stroke-linejoin="round"/>
<path d="M 2.141 81.449 L 38.723 81.449 L 38.723 59.504 L 2.141 59.504 Z M 2.141 81.449" fill="none" stroke="currentColor" stroke-width="1.5" stroke-linecap="round" stroke-linejoin="round"/>
<path d="M 20.43 3.215 L -9.16 24.715 L 3.742 42.473 L 33.332 20.969 Z M 20.43 3.215" fill="none" stroke="currentColor" stroke-width="1.5" stroke-linecap="round" stroke-linejoin="round"/>
<path d="M 2.141 81.449 L 77.27 81.449 L 20.43 3.215" fill="none" stroke="currentColor" stroke-width="1.5" stroke-linecap="round" stroke-linejoin="round"/>
<path d="M 68.973 70.023 C 65.441 72.59 63.152 76.75 63.152 81.449" fill="none" stroke="currentColor" stroke-width="1.5" stroke-linecap="round" stroke-linejoin="round"/>

<text x="80.3" y="79.8" font-size="11" fill="currentColor" font-family="Georgia, 'Times New Roman', serif">X</text>
<text x="53.3" y="73.8" font-size="11" fill="currentColor" font-family="Georgia, 'Times New Roman', serif" font-style="italic">x°</text>
</svg>