<svg xmlns="http://www.w3.org/2000/svg" viewBox="-1.3 -1.59 60.28 70.79">
<path d="M 49.703125 50.472656 C 49.703125 45.488281 45.660156 41.449219 40.675781 41.449219 C 35.695312 41.449219 31.652344 45.488281 31.652344 50.472656 C 31.652344 55.457031 35.695312 59.5 40.675781 59.5 C 45.660156 59.5 49.703125 55.457031 49.703125 50.472656 " fill="#9ca3af" fill-opacity="0.5"/>
<path d="M 54.980469 33.210938 C 54.980469 28.226562 50.9375 24.1875 45.953125 24.1875 C 40.96875 24.1875 36.929688 28.226562 36.929688 33.210938 C 36.929688 38.195312 40.96875 42.238281 45.953125 42.238281 C 50.9375 42.238281 54.980469 38.195312 54.980469 33.210938 " fill="#9ca3af" fill-opacity="0.5"/>
<path d="M 51.535156 15.492188 C 51.535156 10.511719 47.492188 6.46875 42.511719 6.46875 C 37.527344 6.46875 33.484375 10.511719 33.484375 15.492188 C 33.484375 20.480469 37.527344 24.519531 42.511719 24.519531 C 47.492188 24.519531 51.535156 20.480469 51.535156 15.492188 " fill="#9ca3af" fill-opacity="0.5"/>
<path d="M 33.945312 11.433594 C 33.945312 6.449219 29.90625 2.410156 24.925781 2.410156 C 19.9375 2.410156 15.898438 6.449219 15.898438 11.433594 C 15.898438 16.417969 19.9375 20.457031 24.925781 20.457031 C 29.90625 20.457031 33.945312 16.417969 33.945312 11.433594 " fill="#9ca3af" fill-opacity="0.5"/>
<path d="M 20.746094 23.742188 C 20.746094 18.761719 16.707031 14.71875 11.722656 14.71875 C 6.738281 14.71875 2.699219 18.761719 2.699219 23.742188 C 2.699219 28.726562 6.738281 32.769531 11.722656 32.769531 C 16.707031 32.769531 20.746094 28.726562 20.746094 23.742188 " fill="#9ca3af" fill-opacity="0.5"/>
<path d="M 21.691406 41.769531 C 21.691406 36.785156 17.652344 32.742188 12.667969 32.742188 C 7.683594 32.742188 3.644531 36.785156 3.644531 41.769531 C 3.644531 46.753906 7.683594 50.792969 12.667969 50.792969 C 17.652344 50.792969 21.691406 46.753906 21.691406 41.769531 " fill="#9ca3af" fill-opacity="0.5"/>
<path d="M 32.570312 56.171875 C 32.570312 51.1875 28.53125 47.148438 23.546875 47.148438 C 18.5625 47.148438 14.523438 51.1875 14.523438 56.171875 C 14.523438 61.15625 18.5625 65.195312 23.546875 65.195312 C 28.53125 65.195312 32.570312 61.15625 32.570312 56.171875 " fill="#9ca3af" fill-opacity="0.5"/>
<path d="M 40.675781 50.472656 L 45.953125 33.210938 L 42.511719 15.492188 L 24.925781 11.433594 L 11.722656 23.742188 L 12.667969 41.769531 L 23.546875 56.171875 L 40.675781 50.472656 " fill="white"/>
<path d="M 49.703 50.473 C 49.703 45.488 45.66 41.449 40.676 41.449 C 35.695 41.449 31.652 45.488 31.652 50.473 C 31.652 55.457 35.695 59.5 40.676 59.5 C 45.66 59.5 49.703 55.457 49.703 50.473 Z M 49.703 50.473" fill="none" stroke="currentColor" stroke-width="1.5" stroke-linecap="round" stroke-linejoin="round"/>
<path d="M 54.98 33.211 C 54.98 28.227 50.938 24.188 45.953 24.188 C 40.969 24.188 36.93 28.227 36.93 33.211 C 36.93 38.195 40.969 42.238 45.953 42.238 C 50.938 42.238 54.98 38.195 54.98 33.211 Z M 54.98 33.211" fill="none" stroke="currentColor" stroke-width="1.5" stroke-linecap="round" stroke-linejoin="round"/>
<path d="M 51.535 15.492 C 51.535 10.512 47.492 6.469 42.512 6.469 C 37.527 6.469 33.484 10.512 33.484 15.492 C 33.484 20.48 37.527 24.52 42.512 24.52 C 47.492 24.52 51.535 20.48 51.535 15.492 Z M 51.535 15.492" fill="none" stroke="currentColor" stroke-width="1.5" stroke-linecap="round" stroke-linejoin="round"/>
<path d="M 33.945 11.434 C 33.945 6.449 29.906 2.41 24.926 2.41 C 19.938 2.41 15.898 6.449 15.898 11.434 C 15.898 16.418 19.938 20.457 24.926 20.457 C 29.906 20.457 33.945 16.418 33.945 11.434 Z M 33.945 11.434" fill="none" stroke="currentColor" stroke-width="1.5" stroke-linecap="round" stroke-linejoin="round"/>
<path d="M 20.746 23.742 C 20.746 18.762 16.707 14.719 11.723 14.719 C 6.738 14.719 2.699 18.762 2.699 23.742 C 2.699 28.727 6.738 32.77 11.723 32.77 C 16.707 32.77 20.746 28.727 20.746 23.742 Z M 20.746 23.742" fill="none" stroke="currentColor" stroke-width="1.5" stroke-linecap="round" stroke-linejoin="round"/>
<path d="M 21.691 41.77 C 21.691 36.785 17.652 32.742 12.668 32.742 C 7.684 32.742 3.645 36.785 3.645 41.77 C 3.645 46.754 7.684 50.793 12.668 50.793 C 17.652 50.793 21.691 46.754 21.691 41.77 Z M 21.691 41.77" fill="none" stroke="currentColor" stroke-width="1.5" stroke-linecap="round" stroke-linejoin="round"/>
<path d="M 32.57 56.172 C 32.57 51.188 28.531 47.148 23.547 47.148 C 18.563 47.148 14.523 51.188 14.523 56.172 C 14.523 61.156 18.563 65.195 23.547 65.195 C 28.531 65.195 32.57 61.156 32.57 56.172 Z M 32.57 56.172" fill="none" stroke="currentColor" stroke-width="1.5" stroke-linecap="round" stroke-linejoin="round"/>
<path d="M 40.676 50.473 L 45.953 33.211 L 42.512 15.492 L 24.926 11.434 L 11.723 23.742 L 12.668 41.77 L 23.547 56.172 Z M 40.676 50.473" fill="none" stroke="currentColor" stroke-width="1.5" stroke-linecap="round" stroke-linejoin="round"/>


</svg>