<svg xmlns="http://www.w3.org/2000/svg" viewBox="-4.44 -9.33 127.16 157.89">
<path d="M 31.996094 60.335938 L 89.8125 60.335938 L 89.8125 2.519531 L 31.996094 2.519531 Z M 31.996094 60.335938 " fill="#9ca3af" fill-opacity="0.5"/>
<path d="M 118.722656 86.734375 C 118.722656 85.375 118.671875 84.011719 118.574219 82.65625 C 118.480469 81.300781 118.335938 79.945312 118.144531 78.597656 C 117.953125 77.253906 117.714844 75.910156 117.429688 74.582031 C 117.144531 73.253906 116.808594 71.933594 116.429688 70.625 C 116.050781 69.320312 115.625 68.023438 115.15625 66.746094 C 114.683594 65.472656 114.167969 64.210938 113.609375 62.96875 C 113.050781 61.730469 112.449219 60.511719 111.800781 59.3125 C 111.160156 58.117188 110.46875 56.941406 109.742188 55.792969 C 109.015625 54.640625 108.246094 53.515625 107.4375 52.421875 C 106.628906 51.328125 105.785156 50.261719 104.898438 49.226562 C 104.019531 48.191406 103.097656 47.1875 102.144531 46.214844 C 101.191406 45.246094 100.203125 44.308594 99.1875 43.410156 C 98.164062 42.507812 97.113281 41.644531 96.035156 40.8125 C 94.953125 39.988281 93.84375 39.199219 92.703125 38.453125 C 91.570312 37.703125 90.40625 36.996094 89.222656 36.328125 C 88.035156 35.664062 86.828125 35.039062 85.597656 34.457031 C 84.363281 33.875 83.113281 33.339844 81.847656 32.84375 C 80.578125 32.351562 79.292969 31.90625 77.992188 31.503906 C 76.691406 31.101562 75.378906 30.746094 74.054688 30.433594 C 72.730469 30.128906 71.394531 29.863281 70.050781 29.648438 C 68.707031 29.433594 67.355469 29.265625 66 29.144531 C 64.644531 29.023438 63.285156 28.953125 61.925781 28.929688 C 60.5625 28.90625 59.203125 28.929688 57.84375 29 C 56.484375 29.074219 55.128906 29.191406 53.777344 29.359375 C 52.429688 29.527344 51.085938 29.742188 49.75 30.003906 C 48.414062 30.269531 47.089844 30.578125 45.777344 30.933594 C 44.464844 31.292969 43.164062 31.695312 41.878906 32.140625 C 40.59375 32.585938 39.324219 33.082031 38.074219 33.617188 C 36.824219 34.15625 35.59375 34.734375 34.382812 35.359375 C 33.175781 35.984375 31.988281 36.652344 30.824219 37.359375 C 29.664062 38.066406 28.527344 38.816406 27.417969 39.605469 C 26.308594 40.394531 25.226562 41.21875 24.175781 42.082031 C 23.125 42.949219 22.105469 43.851562 21.121094 44.789062 C 20.132812 45.722656 19.179688 46.691406 18.257812 47.695312 C 17.339844 48.699219 16.457031 49.738281 15.613281 50.800781 C 14.765625 51.867188 13.957031 52.964844 13.191406 54.085938 C 12.421875 55.210938 11.691406 56.359375 11.003906 57.535156 C 10.316406 58.707031 9.671875 59.90625 9.070312 61.128906 C 8.46875 62.347656 7.90625 63.585938 7.394531 64.847656 C 6.878906 66.105469 6.40625 67.382812 5.980469 68.675781 C 5.554688 69.96875 5.175781 71.273438 4.84375 72.59375 C 4.511719 73.914062 4.226562 75.246094 3.988281 76.585938 C 3.75 77.921875 3.554688 79.273438 3.414062 80.625 C 3.269531 81.976562 3.171875 83.335938 3.125 84.695312 C 3.074219 86.054688 3.074219 87.417969 3.125 88.777344 C 3.171875 90.136719 3.269531 91.492188 3.414062 92.847656 C 3.554688 94.199219 3.75 95.546875 3.988281 96.886719 C 4.226562 98.226562 4.511719 99.558594 4.84375 100.875 C 5.175781 102.195312 5.554688 103.503906 5.980469 104.796875 C 6.40625 106.085938 6.878906 107.367188 7.394531 108.625 C 7.90625 109.882812 8.46875 111.125 9.070312 112.347656 C 9.671875 113.5625 10.316406 114.761719 11.003906 115.9375 C 11.691406 117.113281 12.421875 118.261719 13.191406 119.386719 C 13.957031 120.507812 14.765625 121.605469 15.613281 122.667969 C 16.457031 123.734375 17.339844 124.769531 18.257812 125.773438 C 19.179688 126.777344 20.132812 127.75 21.121094 128.6875 C 22.105469 129.621094 23.125 130.523438 24.175781 131.386719 C 25.226562 132.25 26.308594 133.078125 27.417969 133.867188 C 28.527344 134.65625 29.664062 135.402344 30.824219 136.113281 C 31.988281 136.820312 33.175781 137.488281 34.382812 138.113281 C 35.59375 138.734375 36.824219 139.316406 38.074219 139.851562 C 39.324219 140.390625 40.59375 140.882812 41.878906 141.332031 C 43.164062 141.78125 44.464844 142.183594 45.777344 142.539062 C 47.089844 142.894531 48.414062 143.203125 49.75 143.464844 C 51.085938 143.730469 52.429688 143.945312 53.777344 144.113281 C 55.128906 144.277344 56.484375 144.398438 57.84375 144.46875 C 59.203125 144.542969 60.5625 144.566406 61.925781 144.542969 C 63.285156 144.519531 64.644531 144.449219 66 144.328125 C 67.355469 144.207031 68.707031 144.039062 70.050781 143.824219 C 71.394531 143.609375 72.730469 143.347656 74.054688 143.035156 C 75.378906 142.726562 76.691406 142.371094 77.992188 141.96875 C 79.292969 141.566406 80.578125 141.117188 81.847656 140.625 C 83.113281 140.132812 84.363281 139.59375 85.597656 139.015625 C 86.828125 138.433594 88.035156 137.808594 89.222656 137.144531 C 90.40625 136.476562 91.570312 135.765625 92.703125 135.019531 C 93.84375 134.273438 94.953125 133.484375 96.035156 132.65625 C 97.113281 131.828125 98.164062 130.964844 99.1875 130.0625 C 100.203125 129.164062 101.191406 128.226562 102.144531 127.257812 C 103.097656 126.285156 104.019531 125.28125 104.898438 124.246094 C 105.785156 123.210938 106.628906 122.144531 107.4375 121.046875 C 108.246094 119.953125 109.015625 118.832031 109.742188 117.679688 C 110.46875 116.53125 111.160156 115.355469 111.800781 114.160156 C 112.449219 112.960938 113.050781 111.738281 113.609375 110.5 C 114.167969 109.257812 114.683594 108 115.15625 106.722656 C 115.625 105.445312 116.050781 104.152344 116.429688 102.847656 C 116.808594 101.539062 117.144531 100.21875 117.429688 98.886719 C 117.714844 97.558594 117.953125 96.21875 118.144531 94.871094 C 118.335938 93.523438 118.480469 92.171875 118.574219 90.8125 C 118.671875 89.457031 118.722656 88.097656 118.722656 86.734375 " fill="white"/>
<path d="M 62.164062 86.734375 C 62.164062 86.042969 61.597656 85.476562 60.90625 85.476562 C 60.210938 85.476562 59.648438 86.042969 59.648438 86.734375 C 59.648438 87.429688 60.210938 87.992188 60.90625 87.992188 C 61.597656 87.992188 62.164062 87.429688 62.164062 86.734375 " fill="white"/>
<path d="M 31.996 60.336 L 89.812 60.336 L 89.812 2.52 L 31.996 2.52 Z M 31.996 60.336" fill="none" stroke="currentColor" stroke-width="1.5" stroke-linecap="round" stroke-linejoin="round"/>
<path d="M 118.723 86.734 C 118.723 85.375 118.672 84.012 118.574 82.656 C 118.48 81.301 118.336 79.945 118.145 78.598 C 117.953 77.254 117.715 75.91 117.43 74.582 C 117.145 73.254 116.809 71.934 116.43 70.625 C 116.051 69.32 115.625 68.023 115.156 66.746 C 114.684 65.473 114.168 64.211 113.609 62.969 C 113.051 61.73 112.449 60.512 111.801 59.313 C 111.16 58.117 110.469 56.941 109.742 55.793 C 109.016 54.641 108.246 53.516 107.438 52.422 C 106.629 51.328 105.785 50.262 104.898 49.227 C 104.02 48.191 103.098 47.188 102.145 46.215 C 101.191 45.246 100.203 44.309 99.188 43.41 C 98.164 42.508 97.113 41.645 96.035 40.813 C 94.953 39.988 93.844 39.199 92.703 38.453 C 91.57 37.703 90.406 36.996 89.223 36.328 C 88.035 35.664 86.828 35.039 85.598 34.457 C 84.363 33.875 83.113 33.34 81.848 32.844 C 80.578 32.352 79.293 31.906 77.992 31.504 C 76.691 31.102 75.379 30.746 74.055 30.434 C 72.73 30.129 71.395 29.863 70.051 29.648 C 68.707 29.434 67.355 29.266 66 29.145 C 64.645 29.023 63.285 28.953 61.926 28.93 C 60.563 28.906 59.203 28.93 57.844 29 C 56.484 29.074 55.129 29.191 53.777 29.359 C 52.43 29.527 51.086 29.742 49.75 30.004 C 48.414 30.27 47.09 30.578 45.777 30.934 C 44.465 31.293 43.164 31.695 41.879 32.141 C 40.594 32.586 39.324 33.082 38.074 33.617 C 36.824 34.156 35.594 34.734 34.383 35.359 C 33.176 35.984 31.988 36.652 30.824 37.359 C 29.664 38.066 28.527 38.816 27.418 39.605 C 26.309 40.395 25.227 41.219 24.176 42.082 C 23.125 42.949 22.105 43.852 21.121 44.789 C 20.133 45.723 19.18 46.691 18.258 47.695 C 17.34 48.699 16.457 49.738 15.613 50.801 C 14.766 51.867 13.957 52.965 13.191 54.086 C 12.422 55.211 11.691 56.359 11.004 57.535 C 10.316 58.707 9.672 59.906 9.07 61.129 C 8.469 62.348 7.906 63.586 7.395 64.848 C 6.879 66.105 6.406 67.383 5.98 68.676 C 5.555 69.969 5.176 71.273 4.844 72.594 C 4.512 73.914 4.227 75.246 3.988 76.586 C 3.75 77.922 3.555 79.273 3.414 80.625 C 3.27 81.977 3.172 83.336 3.125 84.695 C 3.074 86.055 3.074 87.418 3.125 88.777 C 3.172 90.137 3.27 91.492 3.414 92.848 C 3.555 94.199 3.75 95.547 3.988 96.887 C 4.227 98.227 4.512 99.559 4.844 100.875 C 5.176 102.195 5.555 103.504 5.98 104.797 C 6.406 106.086 6.879 107.367 7.395 108.625 C 7.906 109.883 8.469 111.125 9.07 112.348 C 9.672 113.562 10.316 114.762 11.004 115.937 C 11.691 117.113 12.422 118.262 13.191 119.387 C 13.957 120.508 14.766 121.605 15.613 122.668 C 16.457 123.734 17.34 124.77 18.258 125.773 C 19.18 126.777 20.133 127.75 21.121 128.687 C 22.105 129.621 23.125 130.523 24.176 131.387 C 25.227 132.25 26.309 133.078 27.418 133.867 C 28.527 134.656 29.664 135.402 30.824 136.113 C 31.988 136.82 33.176 137.488 34.383 138.113 C 35.594 138.734 36.824 139.316 38.074 139.852 C 39.324 140.391 40.594 140.883 41.879 141.332 C 43.164 141.781 44.465 142.184 45.777 142.539 C 47.09 142.895 48.414 143.203 49.75 143.465 C 51.086 143.73 52.43 143.945 53.777 144.113 C 55.129 144.277 56.484 144.398 57.844 144.469 C 59.203 144.543 60.563 144.566 61.926 144.543 C 63.285 144.52 64.645 144.449 66 144.328 C 67.355 144.207 68.707 144.039 70.051 143.824 C 71.395 143.609 72.73 143.348 74.055 143.035 C 75.379 142.727 76.691 142.371 77.992 141.969 C 79.293 141.566 80.578 141.117 81.848 140.625 C 83.113 140.133 84.363 139.594 85.598 139.016 C 86.828 138.434 88.035 137.809 89.223 137.145 C 90.406 136.477 91.57 135.766 92.703 135.02 C 93.844 134.273 94.953 133.484 96.035 132.656 C 97.113 131.828 98.164 130.965 99.188 130.062 C 100.203 129.164 101.191 128.227 102.145 127.258 C 103.098 126.285 104.02 125.281 104.898 124.246 C 105.785 123.211 106.629 122.145 107.438 121.047 C 108.246 119.953 109.016 118.832 109.742 117.68 C 110.469 116.531 111.16 115.355 111.801 114.16 C 112.449 112.961 113.051 111.738 113.609 110.5 C 114.168 109.258 114.684 108 115.156 106.723 C 115.625 105.445 116.051 104.152 116.43 102.848 C 116.809 101.539 117.145 100.219 117.43 98.887 C 117.715 97.559 117.953 96.219 118.145 94.871 C 118.336 93.523 118.48 92.172 118.574 90.812 C 118.672 89.457 118.723 88.098 118.723 86.734 Z M 118.723 86.734" fill="none" stroke="currentColor" stroke-width="1.5" stroke-linecap="round" stroke-linejoin="round"/>
<path d="M 60.906 60.336 L 60.906 86.734" fill="none" stroke="currentColor" stroke-width="1.5" stroke-linecap="round" stroke-linejoin="round"/>
<path d="M 62.164 86.734 C 62.164 86.043 61.598 85.477 60.906 85.477 C 60.211 85.477 59.648 86.043 59.648 86.734 C 59.648 87.43 60.211 87.992 60.906 87.992 C 61.598 87.992 62.164 87.43 62.164 86.734 Z M 62.164 86.734" fill="none" stroke="currentColor" stroke-width="1.5" stroke-linecap="round" stroke-linejoin="round"/>
<path d="M 62.164 86.734 C 62.164 86.043 61.598 85.477 60.906 85.477 C 60.211 85.477 59.648 86.043 59.648 86.734 C 59.648 87.43 60.211 87.992 60.906 87.992 C 61.598 87.992 62.164 87.43 62.164 86.734 Z M 62.164 86.734" fill="none" stroke="currentColor" stroke-width="1.5" stroke-linecap="round" stroke-linejoin="round"/>
<path d="M 51.887 60.586 L 51.887 69.355 L 60.652 69.355" fill="none" stroke="currentColor" stroke-width="1.5" stroke-linecap="round" stroke-linejoin="round"/>
<path d="M 47.234 55.898 L 45.668 64.777" fill="none" stroke="currentColor" stroke-width="1.5" stroke-linecap="round" stroke-linejoin="round"/>
<path d="M 76.141 55.898 L 74.578 64.777" fill="none" stroke="currentColor" stroke-width="1.5" stroke-linecap="round" stroke-linejoin="round"/>

<text x="62.6" y="78" font-size="11" fill="currentColor" font-family="Georgia, 'Times New Roman', serif" font-style="italic">x</text>
</svg>