<svg xmlns="http://www.w3.org/2000/svg" viewBox="-0.63 -1.16 64.16 64.16">
<path d="M 55.769531 44.953125 C 58.15625 40.824219 59.527344 36.027344 59.527344 30.914062 C 59.527344 25.796875 58.15625 21 55.769531 16.871094 L 7.125 44.953125 C 11.980469 53.347656 21.054688 58.992188 31.449219 58.992188 L 31.449219 2.835938 C 21.054688 2.835938 11.980469 8.476562 7.125 16.871094 L 55.769531 44.953125 " fill="#9ca3af" fill-opacity="0.5"/>
<path d="M 45.488281 30.914062 C 45.488281 23.160156 39.203125 16.875 31.449219 16.875 C 23.695312 16.875 17.40625 23.160156 17.40625 30.914062 C 17.40625 38.667969 23.695312 44.953125 31.449219 44.953125 C 39.203125 44.953125 45.488281 38.667969 45.488281 30.914062 " fill="white"/>
<path d="M 55.77 44.953 C 58.156 40.824 59.527 36.027 59.527 30.914 C 59.527 25.797 58.156 21 55.77 16.871 L 7.125 44.953 C 11.98 53.348 21.055 58.992 31.449 58.992 L 31.449 2.836 C 21.055 2.836 11.98 8.477 7.125 16.871 Z M 55.77 44.953" fill="none" stroke="currentColor" stroke-width="1.5" stroke-linecap="round" stroke-linejoin="round"/>
<path d="M 59.527 30.914 C 59.527 15.406 46.953 2.836 31.449 2.836 C 15.941 2.836 3.367 15.406 3.367 30.914 C 3.367 46.418 15.941 58.992 31.449 58.992 C 46.953 58.992 59.527 46.418 59.527 30.914 Z M 59.527 30.914" fill="none" stroke="currentColor" stroke-width="1.5" stroke-linecap="round" stroke-linejoin="round"/>
<path d="M 45.488 30.914 C 45.488 23.16 39.203 16.875 31.449 16.875 C 23.695 16.875 17.406 23.16 17.406 30.914 C 17.406 38.668 23.695 44.953 31.449 44.953 C 39.203 44.953 45.488 38.668 45.488 30.914 Z M 45.488 30.914" fill="none" stroke="currentColor" stroke-width="1.5" stroke-linecap="round" stroke-linejoin="round"/>


</svg>